<?xml version="1.0" encoding="UTF-8" standalone="no"?>
<svg
   xmlns:dc="http://purl.org/dc/elements/1.1/"
   xmlns:cc="http://creativecommons.org/ns#"
   xmlns:rdf="http://www.w3.org/1999/02/22-rdf-syntax-ns#"
   xmlns:svg="http://www.w3.org/2000/svg"
   xmlns="http://www.w3.org/2000/svg"
   viewBox="0 0 1066.6667 1066.6667"
   height="1066.6667"
   width="1066.6667"
   xml:space="preserve"
   id="svg2"
   version="1.1"><metadata
     id="metadata8"><rdf:RDF><cc:Work
         rdf:about=""><dc:format>image/svg+xml</dc:format><dc:type
           rdf:resource="http://purl.org/dc/dcmitype/StillImage" /></cc:Work></rdf:RDF></metadata><defs
     id="defs6"><clipPath
       id="clipPath20"
       clipPathUnits="userSpaceOnUse"><path
         id="path18"
         d="M 0,800 H 800 V 0 H 0 Z" /></clipPath></defs><g
     transform="matrix(1.3333333,0,0,-1.3333333,0,1066.6667)"
     id="g10"><path
       id="path12"
       style="fill:#d8d8d8;fill-opacity:1;fill-rule:nonzero;stroke:none"
       d="M 0,0 H 800 V 800 H 0 Z" /><g
       id="g14"><g
         clip-path="url(#clipPath20)"
         id="g16"><g
           transform="translate(283.3179,28.7012)"
           id="g22"><path
             id="path24"
             style="fill:#f2f2f2;fill-opacity:1;fill-rule:nonzero;stroke:none"
             d="m 0,0 c 0,-0.638 0.097,-1.179 0.297,-1.626 0.198,-0.446 0.469,-0.786 0.811,-1.011 0.344,-0.228 0.721,-0.341 1.13,-0.341 0.412,0 0.788,0.107 1.131,0.322 0.34,0.218 0.614,0.547 0.819,0.99 C 4.388,-1.22 4.49,-0.665 4.49,0 4.49,0.626 4.388,1.163 4.188,1.615 3.983,2.064 3.708,2.409 3.361,2.646 3.012,2.885 2.632,3.002 2.22,3.002 1.789,3.002 1.405,2.883 1.067,2.638 0.728,2.391 0.465,2.043 0.28,1.586 0.092,1.132 0,0.604 0,0 m 4.62,-3.449 v 0.233 C 4.306,-3.58 3.995,-3.873 3.687,-4.101 3.38,-4.328 3.048,-4.499 2.689,-4.618 2.329,-4.736 1.939,-4.794 1.514,-4.794 c -0.562,0 -1.082,0.12 -1.563,0.357 -0.477,0.241 -0.892,0.58 -1.241,1.02 -0.353,0.44 -0.616,0.963 -0.797,1.56 -0.181,0.595 -0.272,1.239 -0.272,1.935 0,1.468 0.361,2.612 1.078,3.433 0.715,0.82 1.66,1.231 2.83,1.231 0.677,0 1.248,-0.117 1.713,-0.349 C 3.726,4.159 4.178,3.804 4.62,3.32 v 3.469 c 0,0.482 0.098,0.847 0.289,1.094 C 5.1,8.13 5.374,8.254 5.73,8.254 6.085,8.254 6.36,8.138 6.554,7.912 6.745,7.688 6.842,7.352 6.842,6.909 V -3.449 c 0,-0.447 -0.105,-0.783 -0.311,-1.007 -0.206,-0.226 -0.474,-0.338 -0.801,-0.338 -0.322,0 -0.587,0.115 -0.795,0.349 -0.21,0.231 -0.315,0.567 -0.315,0.996" /></g><g
           transform="translate(294.478,29.4404)"
           id="g26"><path
             id="path28"
             style="fill:#f2f2f2;fill-opacity:1;fill-rule:nonzero;stroke:none"
             d="M 0,0 H 4.258 C 4.202,0.804 3.984,1.403 3.608,1.802 3.232,2.201 2.74,2.402 2.126,2.402 1.54,2.402 1.059,2.2 0.684,1.795 0.309,1.392 0.08,0.791 0,0 M 4.595,-1.332 H 0 c 0.005,-0.535 0.113,-1.006 0.322,-1.412 0.211,-0.406 0.488,-0.715 0.835,-0.92 0.348,-0.207 0.73,-0.311 1.149,-0.311 0.282,0 0.537,0.036 0.771,0.097 0.231,0.065 0.456,0.175 0.675,0.312 0.218,0.141 0.417,0.293 0.603,0.453 0.182,0.158 0.42,0.376 0.713,0.652 0.12,0.103 0.292,0.158 0.516,0.158 0.241,0 0.435,-0.069 0.583,-0.2 0.152,-0.132 0.227,-0.317 0.227,-0.559 0,-0.211 -0.085,-0.46 -0.249,-0.746 C 5.976,-4.09 5.726,-4.365 5.39,-4.625 5.056,-4.884 4.635,-5.103 4.125,-5.275 3.618,-5.446 3.034,-5.533 2.374,-5.533 c -1.509,0 -2.682,0.43 -3.519,1.291 -0.838,0.861 -1.256,2.027 -1.256,3.503 0,0.693 0.104,1.341 0.31,1.933 0.207,0.592 0.506,1.103 0.903,1.526 0.397,0.423 0.884,0.75 1.463,0.979 0.58,0.224 1.222,0.337 1.928,0.337 0.918,0 1.705,-0.193 2.361,-0.581 C 5.222,3.067 5.713,2.567 6.041,1.954 6.367,1.34 6.531,0.714 6.531,0.078 6.531,-0.512 6.36,-0.896 6.022,-1.073 5.685,-1.246 5.209,-1.332 4.595,-1.332" /></g><g
           transform="translate(310.5508,26.9795)"
           id="g30"><path
             id="path32"
             style="fill:#f2f2f2;fill-opacity:1;fill-rule:nonzero;stroke:none"
             d="m 0,0 c 0,-0.646 -0.157,-1.202 -0.473,-1.664 -0.314,-0.462 -0.78,-0.81 -1.395,-1.052 -0.617,-0.236 -1.371,-0.355 -2.25,-0.355 -0.847,0 -1.57,0.13 -2.171,0.386 -0.605,0.258 -1.047,0.582 -1.335,0.971 -0.285,0.384 -0.429,0.775 -0.429,1.162 0,0.26 0.091,0.482 0.273,0.664 0.185,0.184 0.416,0.278 0.698,0.278 0.248,0 0.436,-0.063 0.568,-0.182 0.133,-0.121 0.261,-0.289 0.38,-0.508 0.24,-0.42 0.53,-0.731 0.863,-0.937 0.338,-0.206 0.796,-0.312 1.375,-0.312 0.469,0 0.857,0.106 1.157,0.317 0.301,0.208 0.45,0.448 0.45,0.716 0,0.415 -0.157,0.716 -0.47,0.906 -0.312,0.186 -0.826,0.369 -1.542,0.54 -0.809,0.203 -1.466,0.412 -1.975,0.632 -0.506,0.222 -0.912,0.512 -1.217,0.875 -0.305,0.36 -0.455,0.805 -0.455,1.334 0,0.466 0.138,0.915 0.42,1.334 0.279,0.417 0.697,0.75 1.241,1.002 0.55,0.25 1.212,0.374 1.986,0.374 0.607,0 1.152,-0.062 1.638,-0.189 0.484,-0.13 0.889,-0.297 1.215,-0.51 0.323,-0.215 0.569,-0.444 0.739,-0.705 0.169,-0.261 0.254,-0.511 0.254,-0.757 0,-0.268 -0.089,-0.492 -0.273,-0.659 -0.177,-0.176 -0.436,-0.259 -0.768,-0.259 -0.241,0 -0.446,0.068 -0.614,0.203 -0.17,0.139 -0.364,0.347 -0.582,0.619 -0.179,0.231 -0.385,0.417 -0.629,0.553 -0.242,0.137 -0.568,0.206 -0.98,0.206 -0.427,0 -0.778,-0.09 -1.059,-0.273 -0.282,-0.181 -0.422,-0.403 -0.422,-0.673 0,-0.249 0.104,-0.449 0.31,-0.607 0.206,-0.158 0.485,-0.286 0.835,-0.393 0.347,-0.101 0.83,-0.229 1.445,-0.377 0.73,-0.179 1.324,-0.389 1.787,-0.636 0.461,-0.249 0.81,-0.539 1.049,-0.875 C -0.118,0.815 0,0.432 0,0" /></g><g
           transform="translate(314.8896,32.1279)"
           id="g34"><path
             id="path36"
             style="fill:#f2f2f2;fill-opacity:1;fill-rule:nonzero;stroke:none"
             d="m 0,0 v -6.791 c 0,-0.472 -0.113,-0.826 -0.338,-1.068 -0.224,-0.241 -0.506,-0.362 -0.85,-0.362 -0.344,0 -0.626,0.125 -0.838,0.371 -0.217,0.247 -0.324,0.6 -0.324,1.059 v 6.72 c 0,0.466 0.107,0.816 0.324,1.05 0.212,0.235 0.494,0.354 0.838,0.354 0.344,0 0.626,-0.119 0.85,-0.354 C -0.113,0.745 0,0.415 0,0 m -1.162,2.424 c -0.327,0 -0.607,0.101 -0.84,0.302 -0.231,0.2 -0.348,0.484 -0.348,0.85 0,0.333 0.119,0.61 0.359,0.823 0.235,0.215 0.512,0.322 0.829,0.322 0.302,0 0.572,-0.095 0.808,-0.29 C -0.118,4.234 0,3.949 0,3.576 0,3.218 -0.115,2.933 -0.344,2.729 -0.574,2.525 -0.848,2.424 -1.162,2.424" /></g><g
           transform="translate(319.1465,28.7627)"
           id="g38"><path
             id="path40"
             style="fill:#f2f2f2;fill-opacity:1;fill-rule:nonzero;stroke:none"
             d="m 0,0 c 0,-0.954 0.209,-1.676 0.625,-2.16 0.417,-0.489 0.955,-0.733 1.612,-0.733 0.391,0 0.76,0.104 1.107,0.314 0.346,0.209 0.631,0.525 0.848,0.947 0.217,0.422 0.329,0.933 0.329,1.537 0,0.957 -0.213,1.702 -0.634,2.239 C 3.466,2.676 2.909,2.941 2.221,2.941 1.55,2.941 1.013,2.688 0.608,2.175 0.202,1.665 0,0.939 0,0 M 6.807,2.976 V -3.845 C 6.807,-4.628 6.725,-5.297 6.56,-5.86 6.392,-6.425 6.125,-6.888 5.758,-7.254 5.392,-7.621 4.909,-7.895 4.315,-8.074 3.722,-8.248 2.983,-8.337 2.103,-8.337 c -0.81,0 -1.534,0.111 -2.17,0.337 -0.638,0.229 -1.125,0.52 -1.472,0.877 -0.345,0.36 -0.515,0.728 -0.515,1.108 0,0.286 0.098,0.519 0.293,0.702 0.194,0.179 0.429,0.271 0.705,0.271 0.34,0 0.644,-0.153 0.902,-0.456 0.127,-0.156 0.257,-0.313 0.391,-0.47 0.135,-0.157 0.287,-0.293 0.448,-0.405 0.163,-0.111 0.36,-0.194 0.589,-0.25 0.229,-0.054 0.495,-0.083 0.791,-0.083 0.608,0 1.082,0.083 1.418,0.256 0.336,0.168 0.569,0.405 0.705,0.708 0.135,0.307 0.213,0.631 0.236,0.98 0.024,0.343 0.041,0.901 0.054,1.672 C 4.114,-3.596 3.696,-3.979 3.223,-4.244 2.751,-4.507 2.187,-4.639 1.532,-4.639 c -0.783,0 -1.47,0.201 -2.06,0.602 -0.59,0.401 -1.039,0.963 -1.356,1.687 -0.313,0.724 -0.472,1.558 -0.472,2.505 0,0.704 0.095,1.34 0.289,1.909 0.192,0.568 0.466,1.047 0.822,1.438 0.355,0.393 0.766,0.686 1.23,0.881 C 0.448,4.579 0.961,4.68 1.517,4.68 2.18,4.68 2.758,4.553 3.247,4.296 3.731,4.043 4.185,3.641 4.608,3.097 v 0.317 c 0,0.406 0.099,0.723 0.299,0.947 0.199,0.224 0.457,0.337 0.774,0.337 0.453,0 0.752,-0.15 0.903,-0.445 C 6.731,3.959 6.807,3.534 6.807,2.976" /></g><g
           transform="translate(330.4658,32.1611)"
           id="g42"><path
             id="path44"
             style="fill:#f2f2f2;fill-opacity:1;fill-rule:nonzero;stroke:none"
             d="M 0,0 V -0.284 C 0.412,0.261 0.861,0.662 1.353,0.916 1.844,1.169 2.408,1.3 3.043,1.3 3.664,1.3 4.216,1.165 4.707,0.893 5.19,0.625 5.556,0.243 5.796,-0.251 5.953,-0.538 6.052,-0.847 6.098,-1.179 6.144,-1.515 6.166,-1.938 6.166,-2.454 v -4.37 c 0,-0.471 -0.107,-0.826 -0.321,-1.069 -0.214,-0.239 -0.497,-0.36 -0.838,-0.36 -0.353,0 -0.636,0.124 -0.853,0.37 -0.218,0.247 -0.326,0.6 -0.326,1.059 v 3.915 c 0,0.774 -0.108,1.366 -0.323,1.779 -0.218,0.409 -0.644,0.613 -1.287,0.613 -0.421,0 -0.8,-0.126 -1.144,-0.375 C 0.729,-1.138 0.476,-1.482 0.313,-1.919 0.203,-2.271 0.144,-2.925 0.144,-3.882 v -2.942 c 0,-0.478 -0.111,-0.831 -0.332,-1.073 -0.221,-0.237 -0.508,-0.356 -0.857,-0.356 -0.338,0 -0.614,0.124 -0.834,0.37 -0.217,0.247 -0.325,0.6 -0.325,1.059 v 6.791 c 0,0.446 0.097,0.779 0.291,1.001 0.194,0.22 0.461,0.332 0.802,0.332 0.206,0 0.392,-0.051 0.558,-0.146 0.164,-0.099 0.299,-0.247 0.4,-0.439 C -0.053,0.518 0,0.284 0,0" /></g><g
           transform="translate(340.9346,29.4404)"
           id="g46"><path
             id="path48"
             style="fill:#f2f2f2;fill-opacity:1;fill-rule:nonzero;stroke:none"
             d="M 0,0 H 4.26 C 4.199,0.804 3.986,1.403 3.609,1.802 3.236,2.201 2.738,2.402 2.126,2.402 1.54,2.402 1.061,2.2 0.684,1.795 0.309,1.392 0.08,0.791 0,0 M 4.596,-1.332 H 0 c 0.007,-0.535 0.113,-1.006 0.322,-1.412 0.209,-0.406 0.491,-0.715 0.834,-0.92 0.349,-0.207 0.733,-0.311 1.152,-0.311 0.28,0 0.538,0.036 0.768,0.097 0.232,0.065 0.457,0.175 0.678,0.312 0.217,0.141 0.419,0.293 0.601,0.453 0.183,0.158 0.42,0.376 0.713,0.652 0.121,0.103 0.293,0.158 0.515,0.158 0.243,0 0.437,-0.069 0.588,-0.2 0.147,-0.132 0.224,-0.317 0.224,-0.559 0,-0.211 -0.082,-0.46 -0.25,-0.746 C 5.979,-4.09 5.727,-4.365 5.391,-4.625 5.056,-4.884 4.634,-5.103 4.126,-5.275 3.617,-5.446 3.033,-5.533 2.376,-5.533 c -1.511,0 -2.683,0.43 -3.519,1.291 -0.84,0.861 -1.259,2.027 -1.259,3.503 0,0.693 0.105,1.341 0.31,1.933 0.207,0.592 0.508,1.103 0.906,1.526 0.395,0.423 0.881,0.75 1.461,0.979 0.58,0.224 1.222,0.337 1.928,0.337 0.918,0 1.705,-0.193 2.363,-0.581 C 5.222,3.067 5.714,2.567 6.042,1.954 6.369,1.34 6.531,0.714 6.531,0.078 6.531,-0.512 6.359,-0.896 6.025,-1.073 5.686,-1.246 5.21,-1.332 4.596,-1.332" /></g><g
           transform="translate(351.2627,28.7012)"
           id="g50"><path
             id="path52"
             style="fill:#f2f2f2;fill-opacity:1;fill-rule:nonzero;stroke:none"
             d="m 0,0 c 0,-0.638 0.097,-1.179 0.295,-1.626 0.199,-0.446 0.467,-0.786 0.815,-1.011 0.343,-0.228 0.718,-0.341 1.125,-0.341 0.415,0 0.791,0.107 1.134,0.322 0.338,0.218 0.612,0.547 0.816,0.99 C 4.39,-1.22 4.492,-0.665 4.492,0 4.492,0.626 4.39,1.163 4.185,1.615 3.981,2.064 3.707,2.409 3.357,2.646 3.012,2.885 2.631,3.002 2.219,3.002 1.789,3.002 1.403,2.883 1.064,2.638 0.725,2.391 0.465,2.043 0.278,1.586 0.092,1.132 0,0.604 0,0 m 4.619,-3.449 v 0.233 C 4.304,-3.58 3.992,-3.873 3.685,-4.101 3.379,-4.328 3.043,-4.499 2.688,-4.618 2.328,-4.736 1.937,-4.794 1.513,-4.794 c -0.564,0 -1.081,0.12 -1.562,0.357 -0.477,0.241 -0.893,0.58 -1.244,1.02 -0.349,0.44 -0.613,0.963 -0.795,1.56 -0.181,0.595 -0.271,1.239 -0.271,1.935 0,1.468 0.359,2.612 1.074,3.433 0.718,0.82 1.662,1.231 2.832,1.231 0.679,0 1.248,-0.117 1.711,-0.349 C 3.723,4.159 4.178,3.804 4.619,3.32 v 3.469 c 0,0.482 0.096,0.847 0.289,1.094 C 5.102,8.13 5.373,8.254 5.73,8.254 6.084,8.254 6.355,8.138 6.552,7.912 6.744,7.688 6.838,7.352 6.838,6.909 V -3.449 c 0,-0.447 -0.102,-0.783 -0.308,-1.007 -0.208,-0.226 -0.473,-0.338 -0.8,-0.338 -0.322,0 -0.587,0.115 -0.796,0.349 -0.209,0.231 -0.315,0.567 -0.315,0.996" /></g><g
           transform="translate(367.1455,28.6338)"
           id="g54"><path
             id="path56"
             style="fill:#f2f2f2;fill-opacity:1;fill-rule:nonzero;stroke:none"
             d="M 0,0 C 0,-0.938 0.214,-1.655 0.641,-2.155 1.07,-2.66 1.629,-2.91 2.322,-2.91 c 0.592,0 1.102,0.256 1.529,0.772 0.426,0.511 0.639,1.247 0.639,2.205 0,0.621 -0.088,1.152 -0.266,1.6 C 4.048,2.117 3.795,2.459 3.467,2.705 3.143,2.95 2.76,3.07 2.322,3.07 1.873,3.07 1.479,2.95 1.127,2.705 0.777,2.459 0.503,2.108 0.301,1.645 0.101,1.185 0,0.635 0,0 M -0.111,6.977 V 3.388 C 0.33,3.849 0.781,4.2 1.238,4.443 1.697,4.688 2.265,4.809 2.945,4.809 3.723,4.809 4.406,4.624 4.994,4.253 5.583,3.884 6.039,3.347 6.361,2.646 6.688,1.944 6.849,1.109 6.849,0.145 6.849,-0.568 6.76,-1.218 6.578,-1.813 6.396,-2.408 6.135,-2.921 5.792,-3.355 5.447,-3.79 5.031,-4.128 4.541,-4.37 4.049,-4.607 3.508,-4.726 2.916,-4.726 c -0.36,0 -0.701,0.044 -1.018,0.13 -0.318,0.086 -0.589,0.199 -0.813,0.339 -0.224,0.141 -0.416,0.285 -0.574,0.435 -0.157,0.148 -0.363,0.372 -0.622,0.673 v -0.233 c 0,-0.444 -0.106,-0.777 -0.321,-1.006 -0.211,-0.225 -0.479,-0.338 -0.808,-0.338 -0.331,0 -0.598,0.113 -0.796,0.338 -0.196,0.229 -0.296,0.562 -0.296,1.006 V 6.874 c 0,0.474 0.096,0.836 0.289,1.082 0.193,0.241 0.46,0.365 0.803,0.365 0.361,0 0.642,-0.116 0.837,-0.351 0.195,-0.232 0.292,-0.564 0.292,-0.993" /></g><g
           transform="translate(377.8174,23.6152)"
           id="g58"><path
             id="path60"
             style="fill:#f2f2f2;fill-opacity:1;fill-rule:nonzero;stroke:none"
             d="m 0,0 0.213,0.526 -2.891,7.28 c -0.178,0.418 -0.267,0.721 -0.267,0.911 0,0.2 0.053,0.388 0.154,0.559 0.104,0.174 0.248,0.311 0.426,0.412 0.18,0.103 0.371,0.158 0.564,0.158 0.34,0 0.596,-0.109 0.766,-0.322 0.172,-0.218 0.326,-0.523 0.457,-0.927 L 1.41,2.813 3.295,8.191 C 3.443,8.63 3.578,8.967 3.696,9.218 3.819,9.463 3.946,9.629 4.084,9.715 4.217,9.801 4.407,9.846 4.652,9.846 4.83,9.846 5.002,9.797 5.166,9.703 5.329,9.608 5.453,9.479 5.543,9.321 5.631,9.157 5.678,8.99 5.678,8.812 5.653,8.703 5.618,8.549 5.566,8.348 5.514,8.146 5.45,7.943 5.377,7.735 L 2.314,-0.282 C 2.049,-0.991 1.793,-1.541 1.537,-1.942 1.286,-2.344 0.951,-2.652 0.536,-2.868 0.12,-3.084 -0.441,-3.19 -1.147,-3.19 c -0.687,0 -1.206,0.073 -1.548,0.222 -0.344,0.148 -0.516,0.421 -0.516,0.816 0,0.269 0.081,0.479 0.246,0.625 0.162,0.147 0.403,0.221 0.727,0.221 0.125,0 0.248,-0.02 0.369,-0.053 0.149,-0.037 0.278,-0.052 0.389,-0.052 0.269,0 0.478,0.042 0.635,0.123 0.155,0.08 0.295,0.217 0.417,0.418 C -0.305,-0.674 -0.162,-0.383 0,0" /></g><g
           transform="translate(421.2871,33.2549)"
           id="g62"><path
             id="path64"
             style="fill:#f2f2f2;fill-opacity:1;fill-rule:nonzero;stroke:none"
             d="m 0,0 h 0.562 v 0.703 c 0,0.735 0.09,1.32 0.281,1.752 0.18,0.432 0.5,0.751 0.943,0.946 C 2.23,3.6 2.84,3.7 3.614,3.7 4.985,3.7 5.672,3.364 5.672,2.692 5.672,2.472 5.6,2.286 5.456,2.131 5.313,1.978 5.143,1.9 4.948,1.9 4.852,1.9 4.698,1.916 4.473,1.951 4.251,1.987 4.063,2.003 3.906,2.003 3.481,2.003 3.21,1.879 3.093,1.629 2.969,1.379 2.913,1.021 2.913,0.558 V 0 H 3.484 C 4.381,0 4.827,-0.273 4.827,-0.81 4.827,-1.196 4.711,-1.44 4.47,-1.542 4.231,-1.645 3.906,-1.696 3.484,-1.696 H 2.913 v -6.222 c 0,-0.465 -0.115,-0.819 -0.337,-1.064 -0.221,-0.244 -0.508,-0.365 -0.856,-0.365 -0.33,0 -0.606,0.121 -0.829,0.365 -0.223,0.245 -0.329,0.599 -0.329,1.064 v 6.222 h -0.647 c -0.349,0 -0.619,0.076 -0.81,0.237 -0.19,0.156 -0.285,0.361 -0.285,0.615 C -1.18,-0.285 -0.786,0 0,0" /></g><g
           transform="translate(429.6768,27.2988)"
           id="g66"><path
             id="path68"
             style="fill:#f2f2f2;fill-opacity:1;fill-rule:nonzero;stroke:none"
             d="m 0,0 v -1.962 c 0,-0.478 -0.109,-0.831 -0.333,-1.073 -0.229,-0.237 -0.509,-0.356 -0.855,-0.356 -0.333,0 -0.615,0.12 -0.833,0.361 -0.218,0.242 -0.329,0.597 -0.329,1.068 v 6.54 c 0,1.055 0.384,1.584 1.145,1.584 0.391,0 0.673,-0.124 0.846,-0.37 0.171,-0.247 0.262,-0.612 0.282,-1.096 0.285,0.484 0.57,0.849 0.864,1.096 0.298,0.246 0.694,0.37 1.186,0.37 0.49,0 0.971,-0.124 1.434,-0.37 C 3.875,5.545 4.106,5.216 4.106,4.809 4.106,4.521 4.008,4.287 3.807,4.099 3.611,3.915 3.397,3.822 3.167,3.822 3.084,3.822 2.873,3.873 2.541,3.98 2.213,4.088 1.923,4.14 1.67,4.14 1.325,4.14 1.044,4.048 0.827,3.866 0.613,3.688 0.438,3.419 0.32,3.061 0.197,2.706 0.115,2.282 0.066,1.793 0.023,1.304 0,0.703 0,0" /></g><g
           transform="translate(436.5869,29.4404)"
           id="g70"><path
             id="path72"
             style="fill:#f2f2f2;fill-opacity:1;fill-rule:nonzero;stroke:none"
             d="M 0,0 H 4.261 C 4.203,0.804 3.989,1.403 3.61,1.802 3.233,2.201 2.74,2.402 2.126,2.402 1.542,2.402 1.06,2.2 0.685,1.795 0.312,1.392 0.08,0.791 0,0 M 4.596,-1.332 H 0 c 0.007,-0.535 0.111,-1.006 0.323,-1.412 0.208,-0.406 0.487,-0.715 0.834,-0.92 0.349,-0.207 0.733,-0.311 1.15,-0.311 0.28,0 0.54,0.036 0.771,0.097 0.231,0.065 0.455,0.175 0.673,0.312 0.219,0.141 0.421,0.293 0.606,0.453 0.181,0.158 0.419,0.376 0.71,0.652 0.121,0.103 0.297,0.158 0.522,0.158 0.236,0 0.431,-0.069 0.578,-0.2 0.152,-0.132 0.227,-0.317 0.227,-0.559 0,-0.211 -0.082,-0.46 -0.248,-0.746 C 5.977,-4.09 5.729,-4.365 5.396,-4.625 5.057,-4.884 4.637,-5.103 4.125,-5.275 3.619,-5.446 3.034,-5.533 2.375,-5.533 c -1.51,0 -2.681,0.43 -3.519,1.291 -0.835,0.861 -1.257,2.027 -1.257,3.503 0,0.693 0.104,1.341 0.31,1.933 0.207,0.592 0.508,1.103 0.902,1.526 0.398,0.423 0.886,0.75 1.466,0.979 0.578,0.224 1.221,0.337 1.928,0.337 0.915,0 1.702,-0.193 2.359,-0.581 C 5.223,3.067 5.717,2.567 6.041,1.954 6.366,1.34 6.531,0.714 6.531,0.078 6.531,-0.512 6.364,-0.896 6.024,-1.073 5.685,-1.246 5.208,-1.332 4.596,-1.332" /></g><g
           transform="translate(447.0605,29.4404)"
           id="g74"><path
             id="path76"
             style="fill:#f2f2f2;fill-opacity:1;fill-rule:nonzero;stroke:none"
             d="M 0,0 H 4.26 C 4.199,0.804 3.982,1.403 3.609,1.802 3.231,2.201 2.739,2.402 2.126,2.402 1.539,2.402 1.06,2.2 0.682,1.795 0.307,1.392 0.077,0.791 0,0 M 4.595,-1.332 H 0 c 0.004,-0.535 0.112,-1.006 0.322,-1.412 0.209,-0.406 0.487,-0.715 0.833,-0.92 0.349,-0.207 0.732,-0.311 1.151,-0.311 0.279,0 0.538,0.036 0.766,0.097 0.234,0.065 0.46,0.175 0.678,0.312 0.22,0.141 0.42,0.293 0.602,0.453 0.185,0.158 0.423,0.376 0.715,0.652 0.121,0.103 0.291,0.158 0.517,0.158 0.24,0 0.433,-0.069 0.583,-0.2 0.15,-0.132 0.226,-0.317 0.226,-0.559 0,-0.211 -0.084,-0.46 -0.25,-0.746 C 5.978,-4.09 5.725,-4.365 5.39,-4.625 5.055,-4.884 4.634,-5.103 4.126,-5.275 3.616,-5.446 3.034,-5.533 2.373,-5.533 c -1.507,0 -2.681,0.43 -3.519,1.291 -0.837,0.861 -1.254,2.027 -1.254,3.503 0,0.693 0.103,1.341 0.307,1.933 0.207,0.592 0.509,1.103 0.903,1.526 0.397,0.423 0.885,0.75 1.464,0.979 0.58,0.224 1.223,0.337 1.926,0.337 0.922,0 1.707,-0.193 2.363,-0.581 C 5.221,3.067 5.713,2.567 6.039,1.954 6.369,1.34 6.53,0.714 6.53,0.078 6.53,-0.512 6.362,-0.896 6.021,-1.073 5.686,-1.246 5.209,-1.332 4.595,-1.332" /></g><g
           transform="translate(462.1094,28.7275)"
           id="g78"><path
             id="path80"
             style="fill:#f2f2f2;fill-opacity:1;fill-rule:nonzero;stroke:none"
             d="m 0,0 c 0,0.619 -0.094,1.151 -0.285,1.594 -0.189,0.445 -0.452,0.789 -0.787,1.025 -0.335,0.239 -0.704,0.358 -1.113,0.358 -0.649,0 -1.194,-0.253 -1.64,-0.767 -0.443,-0.51 -0.667,-1.261 -0.667,-2.254 0,-0.935 0.22,-1.661 0.663,-2.182 0.443,-0.52 0.99,-0.778 1.644,-0.778 0.388,0 0.753,0.113 1.081,0.341 0.336,0.225 0.602,0.565 0.801,1.017 C -0.101,-1.191 0,-0.644 0,0 M -4.605,3.414 V 3.132 c 0.446,0.544 0.903,0.946 1.379,1.199 0.476,0.257 1.016,0.384 1.617,0.384 0.722,0 1.388,-0.185 1.994,-0.559 C 0.996,3.779 1.477,3.238 1.831,2.521 2.183,1.806 2.359,0.956 2.359,-0.026 2.359,-0.747 2.256,-1.41 2.051,-2.019 1.849,-2.622 1.569,-3.132 1.211,-3.541 0.858,-3.952 0.44,-4.268 -0.047,-4.49 c -0.484,-0.219 -1.006,-0.329 -1.562,-0.329 -0.671,0 -1.234,0.135 -1.692,0.405 -0.454,0.268 -0.889,0.662 -1.304,1.187 v -3.528 c 0,-1.034 -0.374,-1.547 -1.125,-1.547 -0.444,0 -0.733,0.132 -0.877,0.4 -0.144,0.266 -0.216,0.652 -0.216,1.165 V 3.4 c 0,0.447 0.099,0.78 0.292,1.001 0.194,0.22 0.459,0.332 0.801,0.332 0.33,0 0.605,-0.113 0.813,-0.342 0.21,-0.228 0.312,-0.553 0.312,-0.977" /></g><g
           transform="translate(468.6982,32.1279)"
           id="g82"><path
             id="path84"
             style="fill:#f2f2f2;fill-opacity:1;fill-rule:nonzero;stroke:none"
             d="m 0,0 v -6.791 c 0,-0.472 -0.108,-0.826 -0.337,-1.068 -0.22,-0.241 -0.502,-0.362 -0.849,-0.362 -0.345,0 -0.622,0.125 -0.837,0.371 -0.217,0.247 -0.323,0.6 -0.323,1.059 v 6.72 c 0,0.466 0.106,0.816 0.323,1.05 0.215,0.235 0.492,0.354 0.837,0.354 0.347,0 0.629,-0.119 0.849,-0.354 C -0.108,0.745 0,0.415 0,0 m -1.156,2.424 c -0.328,0 -0.61,0.101 -0.84,0.302 -0.232,0.2 -0.35,0.484 -0.35,0.85 0,0.333 0.118,0.61 0.356,0.823 0.236,0.215 0.515,0.322 0.834,0.322 0.302,0 0.568,-0.095 0.804,-0.29 C -0.114,4.234 0,3.949 0,3.576 0,3.218 -0.11,2.933 -0.34,2.729 -0.57,2.525 -0.843,2.424 -1.156,2.424" /></g><g
           transform="translate(476.9766,24.9863)"
           id="g86"><path
             id="path88"
             style="fill:#f2f2f2;fill-opacity:1;fill-rule:nonzero;stroke:none"
             d="M 0,0 -2.071,3.407 -3.345,2.202 v -1.87 c 0,-0.453 -0.12,-0.8 -0.356,-1.045 -0.24,-0.244 -0.515,-0.366 -0.821,-0.366 -0.363,0 -0.646,0.122 -0.856,0.362 -0.205,0.241 -0.307,0.596 -0.307,1.067 v 10.017 c 0,0.521 0.095,0.921 0.301,1.192 0.2,0.273 0.488,0.41 0.862,0.41 0.362,0 0.645,-0.124 0.857,-0.371 0.214,-0.247 0.32,-0.613 0.32,-1.094 V 4.808 l 2.642,2.769 c 0.327,0.347 0.573,0.578 0.747,0.709 0.174,0.126 0.381,0.189 0.631,0.189 0.289,0 0.534,-0.093 0.728,-0.283 C 1.599,8.007 1.699,7.772 1.699,7.493 1.699,7.146 1.379,6.688 0.742,6.116 L -0.506,4.971 1.904,1.185 C 2.083,0.907 2.208,0.688 2.285,0.545 2.362,0.399 2.402,0.257 2.402,0.128 2.402,-0.248 2.3,-0.539 2.095,-0.756 1.893,-0.971 1.621,-1.079 1.294,-1.079 1.008,-1.079 0.785,-1.003 0.632,-0.845 0.475,-0.691 0.266,-0.409 0,0" /></g><g
           transform="translate(482.7891,23.9072)"
           id="g90"><path
             id="path92"
             style="fill:#f2f2f2;fill-opacity:1;fill-rule:nonzero;stroke:none"
             d="m 0,0 c -0.359,0 -0.665,0.114 -0.921,0.346 -0.258,0.229 -0.39,0.551 -0.39,0.964 0,0.351 0.124,0.651 0.369,0.904 0.25,0.252 0.555,0.376 0.916,0.376 0.36,0 0.665,-0.123 0.923,-0.373 C 1.151,1.967 1.279,1.666 1.279,1.31 1.279,0.9 1.151,0.58 0.897,0.35 0.639,0.114 0.342,0 0,0" /></g><g
           transform="translate(495.1709,26.8184)"
           id="g94"><path
             id="path96"
             style="fill:#f2f2f2;fill-opacity:1;fill-rule:nonzero;stroke:none"
             d="m 0,0 c 0,-0.293 -0.091,-0.607 -0.265,-0.94 -0.173,-0.332 -0.441,-0.65 -0.798,-0.951 -0.361,-0.301 -0.814,-0.543 -1.354,-0.727 -0.549,-0.184 -1.161,-0.272 -1.848,-0.272 -1.446,0 -2.58,0.418 -3.396,1.266 -0.812,0.847 -1.219,1.981 -1.219,3.403 0,0.965 0.182,1.815 0.558,2.556 0.37,0.741 0.912,1.314 1.618,1.715 0.703,0.405 1.549,0.608 2.53,0.608 0.607,0 1.162,-0.089 1.672,-0.265 0.507,-0.18 0.94,-0.408 1.288,-0.689 0.354,-0.282 0.626,-0.581 0.815,-0.9 0.182,-0.318 0.278,-0.616 0.278,-0.893 0,-0.279 -0.108,-0.518 -0.317,-0.712 C -0.646,3.003 -0.9,2.908 -1.197,2.908 c -0.196,0 -0.362,0.049 -0.488,0.149 -0.127,0.102 -0.274,0.263 -0.435,0.484 -0.282,0.437 -0.585,0.767 -0.897,0.985 -0.313,0.216 -0.711,0.326 -1.191,0.326 -0.693,0 -1.257,-0.273 -1.681,-0.813 -0.422,-0.541 -0.636,-1.283 -0.636,-2.224 0,-0.442 0.054,-0.85 0.164,-1.218 0.11,-0.37 0.268,-0.686 0.472,-0.947 0.205,-0.262 0.457,-0.458 0.749,-0.594 0.294,-0.135 0.616,-0.201 0.966,-0.201 0.468,0 0.871,0.107 1.208,0.325 0.335,0.219 0.629,0.55 0.892,0.999 0.143,0.261 0.3,0.471 0.465,0.618 0.167,0.149 0.369,0.225 0.607,0.225 0.288,0 0.529,-0.109 0.717,-0.326 C -0.097,0.477 0,0.244 0,0" /></g><g
           transform="translate(503.6553,28.6836)"
           id="g98"><path
             id="path100"
             style="fill:#f2f2f2;fill-opacity:1;fill-rule:nonzero;stroke:none"
             d="m 0,0 c 0,0.958 -0.214,1.705 -0.634,2.236 -0.421,0.535 -0.987,0.801 -1.7,0.801 -0.459,0 -0.864,-0.116 -1.214,-0.356 C -3.895,2.442 -4.168,2.091 -4.355,1.626 -4.548,1.165 -4.642,0.621 -4.642,0 c 0,-0.613 0.094,-1.149 0.28,-1.608 0.187,-0.459 0.455,-0.812 0.802,-1.054 0.346,-0.245 0.752,-0.365 1.226,-0.365 0.713,0 1.279,0.266 1.7,0.803 C -0.214,-1.688 0,-0.945 0,0 m 2.355,0 c 0,-0.698 -0.11,-1.345 -0.327,-1.936 C 1.81,-2.528 1.494,-3.034 1.082,-3.456 0.67,-3.881 0.174,-4.208 -0.398,-4.438 c -0.573,-0.224 -1.22,-0.338 -1.936,-0.338 -0.711,0 -1.35,0.115 -1.92,0.344 -0.564,0.231 -1.058,0.557 -1.475,0.985 -0.414,0.428 -0.73,0.933 -0.945,1.514 -0.215,0.582 -0.321,1.231 -0.321,1.933 0,0.711 0.106,1.361 0.324,1.957 0.217,0.588 0.53,1.093 0.938,1.511 0.407,0.417 0.898,0.74 1.479,0.967 0.582,0.23 1.219,0.342 1.92,0.342 0.713,0 1.357,-0.116 1.936,-0.346 C 0.18,4.203 0.676,3.875 1.09,3.448 1.505,3.027 1.819,2.52 2.033,1.935 2.245,1.35 2.355,0.706 2.355,0" /></g><g
           transform="translate(515.6768,28.5107)"
           id="g102"><path
             id="path104"
             style="fill:#f2f2f2;fill-opacity:1;fill-rule:nonzero;stroke:none"
             d="m 0,0 v -3.121 c 0,-0.495 -0.115,-0.864 -0.337,-1.111 -0.225,-0.247 -0.521,-0.372 -0.888,-0.372 -0.353,0 -0.642,0.125 -0.865,0.372 -0.219,0.247 -0.33,0.616 -0.33,1.111 v 3.743 c 0,0.59 -0.02,1.047 -0.061,1.377 -0.038,0.326 -0.148,0.592 -0.325,0.803 -0.178,0.209 -0.461,0.312 -0.844,0.312 -0.769,0 -1.277,-0.263 -1.517,-0.789 -0.245,-0.528 -0.37,-1.286 -0.37,-2.272 v -3.174 c 0,-0.49 -0.109,-0.858 -0.329,-1.105 -0.223,-0.253 -0.512,-0.378 -0.876,-0.378 -0.351,0 -0.647,0.125 -0.873,0.378 -0.227,0.247 -0.338,0.615 -0.338,1.105 v 6.718 c 0,0.44 0.099,0.779 0.305,1.007 0.203,0.23 0.471,0.346 0.805,0.346 0.323,0 0.59,-0.108 0.806,-0.321 0.213,-0.218 0.32,-0.514 0.32,-0.894 V 3.511 c 0.407,0.485 0.845,0.847 1.308,1.075 0.467,0.228 0.982,0.346 1.551,0.346 0.589,0 1.097,-0.118 1.52,-0.352 C -0.911,4.343 -0.562,3.989 -0.287,3.511 0.11,3.995 0.532,4.349 0.985,4.583 1.438,4.814 1.943,4.932 2.496,4.932 3.135,4.932 3.69,4.808 4.151,4.555 4.619,4.299 4.964,3.942 5.194,3.47 5.396,3.045 5.496,2.377 5.496,1.465 v -4.586 c 0,-0.495 -0.113,-0.864 -0.338,-1.111 -0.221,-0.247 -0.515,-0.372 -0.884,-0.372 -0.353,0 -0.646,0.125 -0.875,0.378 -0.226,0.247 -0.338,0.615 -0.338,1.105 v 3.948 c 0,0.504 -0.022,0.91 -0.063,1.215 C 2.949,2.344 2.836,2.6 2.647,2.807 2.461,3.013 2.171,3.114 1.787,3.114 1.479,3.114 1.185,3.024 0.903,2.839 0.629,2.655 0.41,2.41 0.255,2.102 0.084,1.705 0,1.005 0,0" /></g><g
           transform="translate(402.7803,39.5176)"
           id="g106"><path
             id="path108"
             style="fill:#f2f2f2;fill-opacity:1;fill-rule:nonzero;stroke:none"
             d="m 0,0 c -0.051,0.149 -0.104,0.3 -0.153,0.45 0.792,0.071 1.322,1.018 0.935,1.717 -0.351,0.791 -1.568,0.89 -2.039,0.164 -0.504,-0.64 -0.11,-1.653 0.658,-1.857 0.046,-0.163 0.093,-0.326 0.143,-0.489 -1.183,-0.074 -2.391,-0.339 -3.381,-1.012 0.1,-0.289 0.204,-0.577 0.304,-0.865 2.001,0.877 4.251,0.684 6.361,0.475 0.069,0.278 0.139,0.558 0.208,0.836 C 2.084,-0.15 1.035,0.009 0,0" /></g><g
           transform="translate(414.6855,36.2842)"
           id="g110"><path
             id="path112"
             style="fill:#f2f2f2;fill-opacity:1;fill-rule:nonzero;stroke:none"
             d="m 0,0 c -0.318,-0.161 -0.377,-0.539 -0.361,-0.862 -0.35,-0.341 -0.186,-0.858 -0.225,-1.289 -0.078,-0.241 -0.366,-0.266 -0.565,-0.36 -0.28,0.422 -0.575,0.829 -0.942,1.174 l 10e-4,0.02 c -0.404,0.379 -0.839,0.717 -1.3,1.019 -0.372,-0.395 -0.758,-0.784 -1.116,-1.198 0.705,-0.777 1.357,-1.606 1.934,-2.485 0.393,-0.666 0.716,-1.374 0.992,-2.098 0.596,0.301 1.184,0.622 1.779,0.933 -0.313,0.728 -0.675,1.436 -1.055,2.131 0.262,0.141 0.617,0.281 0.659,0.623 0.031,0.382 -0.057,0.792 0.177,1.126 0.456,-0.301 1.155,0.039 1.161,0.6 C 1.202,-0.092 0.474,0.329 0,0" /></g><g
           transform="translate(410.0156,31.4658)"
           id="g114"><path
             id="path116"
             style="fill:#f2f2f2;fill-opacity:1;fill-rule:nonzero;stroke:none"
             d="m 0,0 c -0.142,-0.967 -1.068,-1.787 -2.056,-1.724 -0.575,-0.048 -1.127,0.223 -1.514,0.627 -0.279,0.346 -0.508,0.748 -0.548,1.202 -0.131,0.983 0.557,1.995 1.522,2.232 0.421,0.118 0.864,0.053 1.283,-0.046 C -0.407,1.971 0.188,0.949 0,0 m -8.702,-2.04 c -0.386,-0.565 -0.945,-1.004 -1.588,-1.251 -1.207,-0.448 -2.678,-0.143 -3.545,0.821 -0.605,0.664 -0.967,1.565 -0.9,2.47 0.045,1.134 0.745,2.186 1.737,2.719 0.759,0.411 1.673,0.481 2.496,0.251 0.349,-0.087 0.667,-0.25 0.964,-0.448 0.61,-0.434 1.072,-1.073 1.273,-1.795 0.282,-0.923 0.103,-1.965 -0.437,-2.767 M 1.448,0.5 C 0.674,1.785 -0.166,3.063 -1.308,4.058 -2.626,5.217 -4.337,6 -6.113,5.991 -8.359,6.02 -10.632,5.653 -12.697,4.753 -14.646,3.897 -16.341,2.373 -17.198,0.4 c -0.826,-1.772 -0.817,-3.814 -0.444,-5.7 2.066,-0.516 4.164,-0.976 6.297,-1.078 2.101,-0.064 4.215,-0.115 6.304,0.18 2.866,0.376 5.677,1.287 8.179,2.75 0,0 -0.343,1.887 -1.69,3.948" /></g><g
           transform="translate(392.8447,34.8398)"
           id="g118"><path
             id="path120"
             style="fill:#f2f2f2;fill-opacity:1;fill-rule:nonzero;stroke:none"
             d="m 0,0 c -0.84,-0.505 -1.527,-1.223 -2.104,-2.006 -0.168,0.309 -0.22,0.681 -0.439,0.961 -0.123,0.166 -0.349,0.098 -0.522,0.101 -0.224,-0.025 -0.441,0.037 -0.648,0.1 0.241,0.348 0.18,0.877 -0.199,1.1 -0.401,0.29 -1.023,0.041 -1.129,-0.439 -0.168,-0.524 0.389,-1.049 0.903,-0.912 0.271,-0.4 0.767,-0.337 1.185,-0.353 0.189,-0.326 0.332,-0.685 0.574,-0.984 -0.449,-0.886 -0.703,-1.88 -0.723,-2.876 0.577,-0.239 1.153,-0.485 1.731,-0.726 0.029,0.627 0.103,1.251 0.201,1.871 0.192,1.345 0.971,2.517 1.894,3.483 C 0.496,-0.44 0.242,-0.229 0,0" /></g><g
           transform="translate(406.3457,24.6777)"
           id="g122"><path
             id="path124"
             style="fill:#f2f2f2;fill-opacity:1;fill-rule:nonzero;stroke:none"
             d="m 0,0 c -2.132,-0.465 -4.325,-0.6 -6.502,-0.504 -1.47,0.073 -2.942,0.211 -4.378,0.528 -1.019,0.208 -2.017,0.501 -3.017,0.788 0.157,-1.283 0.675,-2.507 1.416,-3.561 0.873,-1.225 2.036,-2.353 3.49,-2.804 1.131,-0.303 2.482,-0.693 4.808,-0.654 1.924,0.036 3.815,0.281 5.504,0.995 1.087,0.47 2.111,1.108 2.985,1.906 0.758,0.715 1.354,1.607 1.759,2.564 0.4,0.904 0.759,2.523 0.718,3.355 C 4.704,1.431 2.371,0.397 0,0" /></g><path
           id="path126"
           style="fill:#f2f2f2;fill-opacity:1;fill-rule:nonzero;stroke:none"
           d="M 191,427 H 39 v 349 h 152 z" /><path
           id="path128"
           style="fill:#f2f2f2;fill-opacity:1;fill-rule:nonzero;stroke:none"
           d="M 191,55 H 39 v 162 h 152 z" /><path
           id="path130"
           style="fill:#f2f2f2;fill-opacity:1;fill-rule:nonzero;stroke:none"
           d="M 191,241 H 39 v 164 h 152 z" /><path
           id="path132"
           style="fill:#f2f2f2;fill-opacity:1;fill-rule:nonzero;stroke:none"
           d="M 388,55 H 213 v 350 h 175 z" /><path
           id="path134"
           style="fill:#f2f2f2;fill-opacity:1;fill-rule:nonzero;stroke:none"
           d="M 563,611 H 213 v 165 h 350 z" /><path
           id="path136"
           style="fill:#f2f2f2;fill-opacity:1;fill-rule:nonzero;stroke:none"
           d="M 563,427 H 213 v 160 h 350 z" /><path
           id="path138"
           style="fill:#f2f2f2;fill-opacity:1;fill-rule:nonzero;stroke:none"
           d="M 761,427 H 586 v 349 h 175 z" /><path
           id="path140"
           style="fill:#f2f2f2;fill-opacity:1;fill-rule:nonzero;stroke:none"
           d="M 761,55 H 411 v 350 h 350 z" /><g
           transform="translate(98.0557,734.834)"
           id="g142"><path
             id="path144"
             style="fill:#1f0f0a;fill-opacity:1;fill-rule:nonzero;stroke:none"
             d="m 0,0 c 0,0 9.667,9.333 19.5,5.5 0,0 15.5,8 21.333,-10 0,0 12.334,2.666 12.667,-13.168 0,0 8.833,-0.166 4.833,-18.832 0,0 17,-19.834 9.834,-28.501 0,0 -7,-8.999 0.5,-20.333 0,0 11.167,-12 2.333,-20.5 0,0 -6,-5.334 -0.333,-12.834 0,0 6.086,-5.666 -4.541,-14 0,0 0.708,11.834 -5.959,13 0,0 -5.333,-6 0.333,-13 0,0 6,-9.999 -15.667,-12.666 0,0 16.001,6.333 5.667,14.666 0,0 -6.667,5.334 -5.833,10.5 0,0 -9.334,-11.332 4.5,-14.832 0,0 -25.334,-4.334 -16.334,15 0,0 6,10.332 0.5,16.332 0,0 -7.333,7.834 -0.666,19.667 0,0 14.667,20.5 7.833,46 0,0 -2.128,-8.02 -1.333,-15 0,0 -12.167,21.5 -17.5,24.333 0,0 5.333,-17.999 10.5,-21.666 0,0 -13.333,11.5 -17.167,28 0,0 -5.5,-12.667 -8.5,-20.834 0,0 -0.5,9.168 1.833,13.834 0,0 -12,-21.167 -17.833,-23.667 0,0 -0.667,-16.167 8.333,-26.167 0,0 14.501,-15.666 0.334,-28.166 0,0 -13.667,-14.167 6.5,-20.334 0,0 -11.167,-2.832 -18.5,6.668 0,0 10.167,-12.834 0,-23.668 0,0 0.666,20.001 -13.167,23.168 0,0 -0.5,-14.168 9.667,-14.834 0,0 -18,-4.334 -17,9 0,0 -3.833,-5.666 1,-10.166 0,0 -14.834,8.166 -3.834,20.832 0,0 8.001,6.834 -0.833,15.667 0,0 -11,10.833 -0.167,20.5 0,0 8.167,8.167 4.667,16.5 0,0 -4,5 1.667,8.333 0,0 -3,13.667 8.333,24.5 0,0 -9.833,4.5 4.333,21.334 0,0 13.167,16.5 18.167,9.834" /></g><g
           transform="translate(98.0786,86.1543)"
           id="g146"><path
             id="path148"
             style="fill:#1f0f0a;fill-opacity:1;fill-rule:nonzero;stroke:none"
             d="m 0,0 c 0,0 -26.943,-1.601 -28.277,29.879 0,0 -0.269,47.485 22.941,65.626 0,0 30.412,21.342 49.62,-5.335 0,0 16.54,-24.812 16.274,-58.958 0,0 3.468,-26.704 -24.543,-31.226 0,0 22.543,7.11 16.293,35.36 0,0 1.25,-35.5 -27.25,-32 0,0 13,2.75 15.25,12 0,0 -2.75,-2.75 -12.75,-3 0,0 23.75,8 12.75,56.5 l -6.083,-1.828 -1.361,8.066 -0.486,-8.649 -5.247,-0.972 -1.167,7.289 -1.651,-8.066 -6.512,0.486 -0.486,6.608 -1.107,-6.123 -8.028,0.583 0.194,7.289 -2.43,-6.997 -6.997,1.944 -1.651,7.094 -0.681,-6.706 -5.442,0.681 c 0,0 -10.365,-47.365 15.635,-57.865 0,0 -9.833,-0.834 -15,4.166 0,0 3.332,-8.666 16.166,-12.333 0,0 -17.5,-0.5 -24.333,15.833 0,0 1.551,-14.859 16.359,-19.346" /></g><g
           transform="translate(121.3394,363.9629)"
           id="g150"><path
             id="path152"
             style="fill:#1f0f0a;fill-opacity:1;fill-rule:nonzero;stroke:none"
             d="m 0,0 c 0,0 14.159,5.961 24.841,-1.49 0,0 -9.443,3.346 -15.193,0 0,0 16.875,1.652 26.125,-14.598 0,0 -5.625,4.25 -11.375,4.5 0,0 14.375,-7 14.875,-21.125 0,0 -3.5,9.625 -9.375,10 0,0 8.625,-20.875 4.25,-36.75 0,0 -0.625,6.375 -5.125,12 0,0 3.25,-16.375 -3.375,-30.25 0,0 0.5,9.5 -1.5,12.5 0,0 -0.125,-15.375 -10.125,-26.75 0,0 1.625,4.5 2.125,9.75 0,0 -3.25,-5.875 -7.625,-7.25 0,0 11.977,12.875 11.114,22.125 0,0 -2.114,-2.375 -5.364,-3.875 0,0 9.125,10.875 6.875,30.625 0,0 -4.103,-6.04 -2.5,-11.625 -5.792,6.166 0.989,14.833 -6.375,26 0,0 2.667,-9.667 -3,-16.334 0,0 1.917,11.001 -3,17.418 0,0 0.417,-14.917 -10.583,-22.25 0,0 5.167,8.832 4.333,20.166 0,0 -2.751,-13.334 -12.417,-21 0,0 5.583,14.333 4.25,26.416 0,0 -9.249,-8.666 -9.333,-24.25 0,0 -4.084,15.084 -0.417,24.584 0,0 -8.333,-11.5 -8.833,-19.416 0,0 -0.584,13.166 2.416,19.082 0,0 -7.917,-8.666 -6.5,-27.833 0,0 -4.581,3.833 -2.415,20 0,0 -10.166,-15.167 2.667,-36 l -6.488,4.667 c 0,0 0.322,-14.834 11.488,-25.667 0,0 -3.667,1.667 -9.667,7.667 0,0 2.499,-6 4.833,-9.667 0,0 -11.834,4.167 -12,26 0,0 -3.167,-4.667 -2,-11.667 0,0 -6.333,16.834 -2.5,33.168 0,0 -5.5,-4.5 -5,-17.5 0,0 -8.501,26.999 15.166,47.332 0,0 -5.853,-1.513 -8.835,-4.111 0,0 8.333,13.838 19.647,13.455 0,0 -6.728,4.97 -17.507,-3.211 0,0 10.529,16.867 31.195,5.034 0,0 -4.249,5.417 -7.333,6.417 0,0 9.582,-1.166 11.999,-5.75 0,0 0.584,7.833 -2.666,8.833 0,0 5.917,-1.5 6,-8.417 0,0 2.333,6.667 12.583,4.167 C 8.356,5.12 1.811,4.213 0,0" /></g><g
           transform="translate(151.9448,537.124)"
           id="g154"><path
             id="path156"
             style="fill:#1f0f0a;fill-opacity:1;fill-rule:nonzero;stroke:none"
             d="m 0,0 c 0,0 -4.169,19.455 -32.159,20.249 0,0 -24.22,0.595 -38.115,-23.028 0,0 -31.762,-45.46 -8.735,-61.341 0,0 -6.554,24.813 1.388,32.357 0,0 -4.764,-21.043 2.978,-33.549 0,0 -2.78,23.028 5.36,34.741 0,0 -9.529,-27.197 1.985,-37.321 0,0 -0.803,1.018 1.447,3.893 0,0 -0.5,-4.286 11.75,-3.893 0,0 -2.75,4.143 -1.5,4.518 0,0 1.036,-1.676 7.991,-2.049 0,0 -17.366,35.049 -5.616,58.049 0,0 -4.431,-17.5 9.535,-55 0,0 -15.035,44.75 -4.285,56.5 0,0 1.313,-3.688 -0.375,-7.813 0,0 6,7.375 5.75,12.25 0,0 2.438,-5.375 -2.75,-11.812 0,0 8.125,4.562 12.063,10.812 0,0 -0.25,-6.125 -7,-12.125 0,0 12.062,5.125 14.562,12.875 0,0 2.5,-6.875 -5,-14.937 0,0 15.375,9.25 14.188,16.062 0,0 1.875,-6.187 -1.938,-12 0,0 9.375,4.625 8.438,13.063 0,0 3.062,-5.688 -2.5,-14.313 0,0 7.187,1.813 8.312,6.688 0,0 8.496,-25.756 -8.25,-50.875 0,0 7.625,8.5 10,16.5 0,0 -2.25,-14.875 -13,-24.25 0,0 12.375,6.25 17,24.625 0,0 0.25,-12.875 -9.625,-24.25 0,0 6.75,-0.75 10.75,6.875 0,0 0,-5.125 -1.375,-7.125 0,0 5.125,3.125 4.375,26 0,0 4.375,-12.875 -0.5,-23.375 0,0 18.577,17.873 -5.149,62.999" /></g><g
           transform="translate(650.7461,597.7168)"
           id="g158"><path
             id="path160"
             style="fill:#1f0f0a;fill-opacity:1;fill-rule:nonzero;stroke:none"
             d="m 0,0 c 0,0 5.143,8.687 14.504,3.692 0,0 5.301,4.499 12.01,-2.833 0,0 4.834,-0.324 7.642,-3.913 0,0 15.68,-0.739 23.119,-24.09 0,0 6.409,-18.396 3.1,-53.526 0,0 -3.514,-15.293 9.918,-15.086 0,0 -4.338,-2.068 -9.918,-2.482 0,0 1.445,-9.3 -11.986,-19.839 0,0 0.175,3.513 -0.857,7.645 0,0 -5.278,-10.952 -13.278,-17.358 v 6.613 c 0,0 -7.813,-16.944 -23.105,-24.177 0,0 3.637,4.958 5.912,10.745 0,0 -2.315,-0.827 -5.415,-2.274 0,0 5.043,4.134 6.696,8.887 0,0 -0.99,0 -4.297,-1.654 0,0 6.426,6.821 8.285,13.227 0,0 -3.09,-1.674 -5.156,-1.26 0,0 8.482,5.966 11.377,11.966 h -4.754 c 0,0 16.326,12.624 16.945,31.637 0,0 -4.34,-10.323 -6.82,-11.564 0,0 2.894,9.305 3.928,16.745 0,0 -12.811,10.335 -16.325,17.36 0,0 -23.56,11.368 -26.453,14.881 0,0 -18.39,-5.578 -3.511,-41.743 0,0 4.959,-15.085 12.398,-20.044 0,0 11.365,-8.473 6.613,-21.906 0,0 -0.621,-5.269 1.342,-7.543 0,0 -3.719,0.208 -5.062,2.068 0,0 2.582,-15.912 -8.059,-23.868 0,0 1.447,12.193 -9.094,17.978 0,0 -8.056,5.165 -7.851,13.639 0,0 -4.34,-3.72 -7.854,2.48 0,0 9.92,-0.826 5.58,9.919 0,0 -5.787,15.911 -4.34,25.004 0,0 -8.058,34.926 -1.24,44.225 0,0 0.207,20.664 12.399,25.83 0,0 1.382,11.732 13.607,10.619" /></g><g
           transform="translate(274.394,71.9629)"
           id="g162"><path
             id="path164"
             style="fill:#1f0f0a;fill-opacity:1;fill-rule:nonzero;stroke:none"
             d="m 0,0 c 0,0 -27.273,10.857 -29.025,68.27 0,0 -2.192,20.599 10.518,56.098 0,0 17.092,39.004 39.006,28.048 0,0 29.581,14.464 45.029,-24.979 0,0 8.547,-23.009 7.56,-53.249 0,0 0.987,-30.241 -14.133,-58.179 0,0 -31.555,12.161 -12.491,44.702 0,0 18.736,32.213 -0.986,46.018 0,0 -18.736,9.697 -20.215,21.365 0,0 -0.986,-14.134 14.299,-21.036 0,0 -12.162,2.958 -16.435,11.339 0,0 1.314,-5.423 10.683,-11.175 0,0 -20.708,3.78 -23.174,27.775 0,0 -6.573,-9.532 -9.861,-18.9 0,0 -3.615,-8.382 -11.504,-13.313 0,0 0.986,-31.39 15.613,-45.688 0,0 8.382,-10.519 -1.15,-29.747 C 3.734,27.349 -6.035,11.273 0,0" /></g><g
           transform="translate(488.75,362.7383)"
           id="g166"><path
             id="path168"
             style="fill:#1f0f0a;fill-opacity:1;fill-rule:nonzero;stroke:none"
             d="m 0,0 c 0,0 22.871,24.689 39.9,-6.244 0,0 24.692,-15.324 12.204,-26.11 0,0 -6.813,-4.253 1.984,-11.917 0,0 15.042,-15.038 -1.701,-32.917 0,0 5.11,-19.581 -10.216,-20.149 0,0 -10.097,0.483 -11.113,-7.653 0,0 -1.399,-9.181 3.866,-12.208 0,0 -23.195,14.244 -11.598,33.368 0,0 18.312,17.904 15.87,41.506 0,0 -12.615,7.933 -16.073,20.955 0,0 -8.127,-11.801 7.025,-18.312 0,0 -13.537,2.443 -16.791,19.329 0,0 -1.423,-5.187 3.358,-12.411 0,0 -10.479,4.579 -11.801,15.769 0,0 -5.289,-9.969 -18.209,-13.123 0,0 8.952,4.579 11.088,12.411 0,0 -7.426,-8.954 -15.971,-11.396 0,0 -11.597,-8.544 -4.679,-27.058 0,0 4.883,-16.685 10.783,-24.009 0,0 6.511,-8.546 4.679,-16.48 0,0 -3.459,-8.952 0.815,-13.428 0,0 6.307,-5.696 -4.069,-12.208 0,0 -9.057,-6.001 -5.14,-10.834 0,0 2.342,-3.408 5.291,-0.61 0,0 2.898,2.084 -1.781,3.051 0,0 4.832,4.833 4.73,-2.593 0,0 -0.965,-7.529 -9.357,-2.952 0,0 -6.537,4.351 -3.256,11.599 0,0 4.043,7.63 -4.197,10.3 0,0 -11.444,3.433 -2.289,14.267 0,0 7.93,9.385 -3.549,15.718 0,0 -24.147,9.308 -13.16,29.908 0,0 -6.256,10.987 5.798,16.633 0,0 -12.511,20.6 5.495,33.266 0,0 21.25,14.405 32.064,4.532" /></g><g
           transform="translate(296.1558,365.1738)"
           id="g170"><path
             id="path172"
             style="fill:#1f0f0a;fill-opacity:1;fill-rule:nonzero;stroke:none"
             d="m 0,0 c 0,0 14.15,4.83 27.412,-6.93 0,0 25.717,-20.233 19.461,-69.778 0,0 -2.131,-14.952 -10.451,-23.272 l -0.316,3.035 c 0,0 -1.369,-3.777 -6.965,-7.559 l -0.155,2.877 c 0,0 -5.446,-6.352 -13.311,-8.923 0,0 4.839,3.632 7.108,8.622 0,0 -5.447,-5.595 -9.833,-6.05 0,0 14.672,8.47 17.092,45.982 0,0 0.705,6.15 -8.392,4.962 0,0 -24.077,-2.443 -40.816,-0.426 0,0 -4.798,1.152 -6.443,-4.159 0,0 -5.759,-24.578 9.67,-46.963 0,0 -6.771,3.176 -10.722,11.192 l 0.886,-5.294 c 0,0 -8.381,7.26 -9.381,13.462 v -3.932 c 0,0 -12.323,11.646 -10.962,33.578 0,0 4.048,34.789 18.719,50.367 0,0 15.997,18 27.399,9.209" /></g><g
           transform="translate(688.3359,748.9688)"
           id="g174"><path
             id="path176"
             style="fill:#1f0f0a;fill-opacity:1;fill-rule:nonzero;stroke:none"
             d="m 0,0 c 0,0 3.146,2.872 10.259,1.504 0,0 -2.19,-0.82 -4.241,-3.145 0,0 6.703,1.641 11.353,-2.873 0,0 -3.691,1.095 -7.522,0 0,0 15.318,-5.882 19.422,-11.9 0,0 -2.873,0.821 -5.745,0 0,0 5.199,-4.377 6.566,-19.286 0,0 -2.871,3.83 -4.651,4.241 -1.779,0.41 10.667,-50.063 -15.046,-82.343 0,0 6.293,10.395 6.019,25.168 0,0 -2.462,-9.027 -7.66,-15.046 0,0 6.839,29.229 1.915,47.716 l -3.831,-8.05 c 0,0 -1.365,21.065 -10.12,28.724 0,0 -4.653,-12.899 -14.227,-20.674 0,0 5.335,7.68 6.155,17.255 0,0 -2.87,-8.207 -9.984,-14.499 0,0 2.734,6.156 2.734,8.618 0,0 -3.831,-6.292 -9.847,-9.028 0,0 6.703,7.523 6.429,11.9 0,0 -15.319,-10.532 -16.14,-25.305 0,0 -2.462,3.147 -1.915,7.25 0,0 -3.009,-4.241 -1.642,-8.754 0,0 -3.284,2.598 -2.736,6.839 0,0 -11.624,-5.882 1.369,-29.272 0,0 -3.559,0.41 -5.473,2.052 0,0 4.514,-5.471 6.02,-21.474 0,0 -3.283,2.324 -5.745,7.522 l -0.954,-5.608 c 0,0 -10.469,11.627 -9.648,28.246 0,0 1.026,14.362 -5.95,17.029 0,0 2.872,16.619 5.95,23.595 0,0 -5.13,-1.847 -5.95,-4.924 0,0 0.205,12.515 5.54,17.439 0,0 -2.873,-0.205 -5.54,-3.487 0,0 -0.205,15.798 17.44,22.569 L -54.27,-9.13 c 0,0 13.336,6.415 21.236,11.004 0,0 20.623,8.59 33.034,-1.874" /></g><g
           transform="translate(350.9351,691.7178)"
           id="g178"><path
             id="path180"
             style="fill:#1f0f0a;fill-opacity:1;fill-rule:nonzero;stroke:none"
             d="m 0,0 c 0,0 -8.431,19.202 -7.728,34.892 0,0 -1.241,-1.063 -1.913,-3.079 0,0 -1.678,9.235 7.388,17.125 0,0 0,8.395 12.255,9.906 0,0 5.877,7.554 18.468,3.694 0,0 10.073,6.714 18.636,-3.358 0,0 9.568,0.167 14.102,-11.081 0,0 3.022,-9.57 7.89,-10.242 l -3.189,-2.686 c 0,0 1.678,-21.993 -7.723,-34.081 0,0 4.196,21.658 -12.423,28.037 0,0 3.693,-6.883 6.21,-12.255 0,0 -9.064,11.08 -14.94,12.255 0,0 -11.417,-1.007 -17.965,5.205 0,0 6.716,-9.066 9.57,-11.752 0,0 -13.431,6.38 -16.956,11.752 0,0 -9.402,7.051 -9.57,-6.38 z" /></g><g
           transform="translate(234.0122,692.5703)"
           id="g182"><path
             id="path184"
             style="fill:#1f0f0a;fill-opacity:1;fill-rule:nonzero;stroke:none"
             d="m 0,0 c 0,0 -2.559,10.686 -5.418,18.211 0,0 -2.257,10.233 1.355,20.016 3.611,9.782 -7.343,19.992 10.083,33.283 0,0 -3.396,-4.283 -3.987,-9.009 0,0 4.578,8.27 9.008,10.929 0,0 1.182,-9.009 18.755,-12.553 0,0 20.38,-2.806 20.675,-13.291 0,0 8.635,-2.386 7.089,-23.776 -0.886,-12.257 -3.995,-13.554 -6.498,-24.663 0,0 2.658,18.165 -1.92,23.629 0,0 5.169,7.68 -5.464,13.513 0,0 -20.084,9.377 -32.932,0 0,0 -10.928,-5.095 -7.089,-10.56 0,0 1.625,-1.943 -2.953,-6.94 z" /></g><g
           transform="translate(233.1777,619.7227)"
           id="g186"><path
             id="path188"
             style="fill:#1f0f0a;fill-opacity:1;fill-rule:nonzero;stroke:none"
             d="M 0,0 C 0,0 -3.92,13.958 -4.363,21.933 L -5.84,15.582 c 0,0 -2.511,11.224 0,16.393 0,0 -5.613,7.531 2.362,14.767 0,0 1.182,11.962 13.587,5.465 0,0 5.021,13.881 33.671,4.134 l -4.431,-0.885 c 0,0 11.076,-6.056 19.789,-7.828 l -3.84,-1.92 c 0,0 5.76,-11.075 5.76,-26.434 0,0 -1.135,3.113 -2.067,3.101 2.412,-10.682 -3.298,-11.912 -4.874,-20.822 0,0 1.034,14.324 -3.692,19.641 0,0 3.84,9.599 -3.397,13.439 0,0 -4.43,3.396 -8.417,0.443 0,0 -13.439,-3.397 -21.413,0.295 0,0 -7.089,3.397 -10.633,-1.034 0,0 -4.874,-4.135 -1.773,-13.881 C 4.792,20.456 -0.804,19.27 0,0" /></g><g
           transform="translate(353.6987,619.4814)"
           id="g190"><path
             id="path192"
             style="fill:#1f0f0a;fill-opacity:1;fill-rule:nonzero;stroke:none"
             d="m 0,0 c 0,0 -8.842,20.505 -6.772,37.249 0,0 4.139,17.119 16.18,17.119 0,0 7.335,10.534 15.047,3.385 0,0 12.792,7.337 18.625,-3.197 0,0 11.29,1.129 13.922,-10.723 0,0 7.149,-3.387 2.07,-25.021 0,0 -4.248,-11.849 -4.987,-16.575 0,0 -0.885,10.781 0.296,17.574 0,0 2.659,13.586 -4.135,18.46 0,0 -5.17,5.463 -14.916,-0.739 0,0 -7.532,-6.498 -15.506,0 -7.975,6.498 -12.258,4.578 -16.393,-0.148 0,0 -5.464,-5.168 -3.692,-13.291 0,0 1.703,-16.731 0.261,-24.093" /></g><g
           transform="translate(469.5664,690.2954)"
           id="g194"><path
             id="path196"
             style="fill:#1f0f0a;fill-opacity:1;fill-rule:nonzero;stroke:none"
             d="m 0,0 c 0,0 -9.045,20.121 -5.652,37.531 0,0 2.035,17.184 20.573,20.348 0,0 18.767,5.2 25.323,-5.201 0,0 16.732,-0.9 16.505,-15.596 0,0 -0.678,-23.745 -9.044,-37.082 0,0 3.619,18.539 -2.033,22.835 0,0 2.715,10.625 -4.068,11.078 0,0 -9.09,-7.058 -19.41,-8.731 0,0 6.972,3.486 9.761,9.203 0,0 -14.503,-10.598 -27.053,-12.829 0,0 4.462,4.183 6.694,11.017 0,0 -6.694,-9.065 -10.877,-12.133 z" /></g><g
           transform="translate(470.4922,619.8184)"
           id="g198"><path
             id="path200"
             style="fill:#1f0f0a;fill-opacity:1;fill-rule:nonzero;stroke:none"
             d="m 0,0 c 0,0 -10.11,10.458 -8.855,32.353 0,0 2.126,26.634 32.805,26.634 0,0 33.405,0.419 33.405,-26.356 0,0 0.153,-16.734 -8.847,-32.631 v 27.89 c 0,0 2.31,12.969 -10.24,1.604 0,0 -7.35,-4.393 -13.068,-4.254 0,0 -4.65,-5.717 -11.065,-4.741 0,0 3.949,2.231 2.136,4.602 0,0 -9.042,4.462 -9.181,8.088 0,0 -8.217,7.112 -8.077,-5.299 z" /></g><g
           transform="translate(282.3994,551.8428)"
           id="g202"><path
             id="path204"
             style="fill:#1f0f0a;fill-opacity:1;fill-rule:nonzero;stroke:none"
             d="m 0,0 c 0,0 7.086,4.855 15.354,-2.756 0,0 14.698,-9.317 20.865,-33.988 0,0 8.924,-16.404 -3.281,-29.396 0,0 0.395,-1.706 3.937,-4.462 l -4.199,1.05 c 0,0 0,-3.149 3.281,-4.855 0,0 -7.611,-1.837 -8.924,0.787 0,0 -2.099,-3.28 6.562,-4.33 0,0 -4.856,-3.675 -9.449,-3.412 0,0 2.362,-2.888 1.969,-4.856 0,0 -2.887,2.493 -4.462,3.018 l -5.381,-1.705 c 0,0 5.119,6.955 5.119,15.222 l 0.262,18.635 -14.042,16.797 c 0,0 7.087,-14.566 11.286,-18.635 0,0 -25.064,10.236 -35.957,25.065 0,0 3.413,-10.761 15.354,-18.635 0,0 -14.566,6.037 -20.34,13.386 0,0 -1.182,-7.874 -7.218,-14.435 -6.036,-6.561 0,-0.394 0,-0.394 0,0 -2.625,-8.661 2.231,-16.141 0,0 -0.656,-16.535 5.249,-22.178 l -5.38,3.543 -4.783,-3.543 1.502,7.349 c 0,0 -2.756,-1.181 -7.874,2.362 0,0 3.019,1.181 4.593,3.937 0,0 -3.149,-1.575 -8.661,0 0,0 3.543,1.444 4.856,5.381 l -5.906,-2.494 3.806,4.462 c 0,0 -8.399,6.643 -4.724,22.875 0,0 9.998,46.786 35.957,42.346 0,0 4.52,-1.121 8.398,0" /></g><g
           transform="translate(369.4126,465.3037)"
           id="g206"><path
             id="path208"
             style="fill:#1f0f0a;fill-opacity:1;fill-rule:nonzero;stroke:none"
             d="m 0,0 c 0,0 -33.726,0.472 -27.122,43.869 0,0 9.434,43.868 34.199,41.038 0,0 25.707,13.209 45.047,-14.385 0,0 15.331,-19.105 11.793,-41.982 0,0 -2.122,-25.711 -26.18,-28.54 0,0 29.011,30.896 -16.037,48.349 0,0 7.713,-10.138 15.846,-11.668 0,0 -16.459,-2.489 -31.576,13.778 0,0 -8.421,-19.614 -16.075,-25.547 0,0 -1.414,-14.995 10.105,-24.912" /></g><g
           transform="translate(524.3701,463.9688)"
           id="g210"><path
             id="path212"
             style="fill:#1f0f0a;fill-opacity:1;fill-rule:nonzero;stroke:none"
             d="m 0,0 c 0,0 7.522,3.134 5.015,10.239 0,0 -0.836,5.433 4.596,10.239 0,0 6.269,5.85 4.389,10.029 0,0 -1.045,3.27 1.818,6.056 0,0 3.328,3.714 -0.851,6.577 0,0 -2.553,3.094 0.851,4.719 0,0 4.256,3.559 0.31,10.214 0,0 -3.791,5.261 -8.124,4.41 0,0 4.72,14.701 -10.755,14.546 0,0 -5.727,15.707 -17.1,9.44 0,0 -5.184,-3.559 -10.446,0.619 0,0 -7.814,6.654 -17.021,-6.19 0,0 -8.125,2.786 -9.672,-4.255 0,0 -10.833,-1.935 -9.672,-11.374 0,0 -6.191,-3.637 -2.941,-7.661 0,0 1.703,-2.862 -0.541,-4.642 0,0 -6.422,-4.41 0.697,-9.207 0,0 2.63,-1.238 0,-3.637 0,0 -7.66,-6.267 -0.31,-12.225 0,0 3.714,-2.863 3.404,-4.952 0,0 -1.47,-6.654 2.012,-8.975 0,0 5.184,-3.25 -0.465,-8.743 0,0 -4.797,-3.792 3.637,-8.28 0,0 2.708,-2.011 1.161,-5.416 0,0 5.293,3.966 -0.387,7.815 0,0 -4.719,2.631 0.464,5.958 0,0 2.554,2.089 1.625,6.267 0,0 -1.006,3.791 2.322,7.66 0,0 6.266,7.041 4.719,13.231 0,0 3.095,5.262 7.97,6.499 0,0 27.235,1.78 40.079,-22.515 0,0 -1.392,8.047 -3.558,12.38 0,0 11.691,-14.477 6.774,-28.826" /></g><g
           transform="translate(563.4219,100.9307)"
           id="g214"><path
             id="path216"
             style="fill:#1f0f0a;fill-opacity:1;fill-rule:nonzero;stroke:none"
             d="m 0,0 c 0,0 21.738,55.336 29.644,145.115 0,0 -4.659,90.767 29.644,113.211 0,0 38.537,28.797 56.323,0 0,0 26.256,-3.811 29.645,-47.007 0,0 -2.118,-53.359 7.199,-105.447 0,0 13.128,-76.651 28.373,-120.693 0,0 -9.316,19.903 -23.292,69.451 0,0 -0.282,-39.384 6.777,-57.453 0,0 7.34,-7.905 -6.494,-11.998 0,0 -25.126,-4.658 -21.174,2.681 0,0 -9.034,1.975 -11.575,-1.13 -2.541,-3.105 -1.694,56.75 -6.775,86.675 0,0 -4.52,-39.524 -14.117,-74.816 0,0 11.48,79.417 9.74,113.212 0,0 1.27,24.563 8.046,40.373 0,0 13.27,35.288 3.953,51.663 l -41.501,-1.128 -1.413,21.175 -1.694,-20.894 -5.081,-0.281 -2.541,11.011 -1.695,-10.73 -17.503,-0.281 c 0,0 -3.952,-35.855 6.211,-53.642 0,0 11.01,-22.021 9.032,-83.003 0,0 -2.822,42.067 -5.928,53.078 0,0 -4.516,-67.053 10.305,-119.565 0,0 -11.009,27.103 -16.515,71.146 l -2.541,-84.274 -13.128,0.847 -0.083,-4.351 c 0,0 -21.214,-2.419 -30.338,5.715 0,0 8.823,37.032 8.26,68.087 C 19.764,56.747 7.624,11.011 0,0" /></g><g
           transform="translate(531.3643,192.6807)"
           id="g218"><path
             id="path220"
             style="fill:#1f0f0a;fill-opacity:1;fill-rule:nonzero;stroke:none"
             d="m 0,0 c 0,0 35.642,-21.744 6.246,-43.124 0,0 2.442,2.354 2.798,5.862 0,0 -1.922,-3.332 -5.53,-3.633 0,0 0.915,1.391 0.414,3.395 0,0 -2.4,-3.814 -6.508,-3.413 0,0 1.506,1.801 1.907,4.707 0,0 -2.504,-4.813 -9.518,-4.611 l 0.903,3.706 -3.708,-2.004 -1.002,2.905 -2.606,-3.206 -1.203,2.705 -1.903,-2.505 -1.904,2.004 c 0,0 -2.305,-2.505 -5.613,-5.11 0,0 0.703,0.801 0,3.607 -0.701,2.806 -11.724,-12.326 -10.722,-29.763 0,0 0,-19.041 16.836,-25.654 0,0 -4.009,-3.007 -10.022,0 0,0 6.011,-6.814 13.027,-6.213 0,0 -11.256,-9.295 -25.256,-0.038 v -5.374 l -11.824,10.823 1.605,-5.411 c 0,0 -7.916,4.81 -13.328,11.224 0,0 -3.357,-6.013 -6.964,-8.018 0,0 3.433,7.489 1.428,13.265 0,0 0.012,-4.647 -5.399,-6.65 0,0 5.618,7.214 0.006,16.836 0,0 -11.821,19.44 -10.619,49.504 0,0 2.006,28.661 21.848,38.882 0,0 21.86,14.831 31.274,2.205 0,0 7.811,4.61 12.22,-3.207 0,0 12.225,1.202 16.635,-8.016 0,0 5.549,-1.338 6.482,-5.68" /></g></g></g></g></svg>