<svg width="503" height="228" viewBox="0 0 503 228" fill="none" xmlns="http://www.w3.org/2000/svg">
<ellipse cx="204.504" cy="149.679" rx="51.3435" ry="42.6412" fill="#DFDFDF"/>
<rect y="210.595" width="408.137" height="12.1832" fill="#DFDFDF"/>
<rect x="23.4962" y="222.779" width="361.145" height="0.870229" fill="#CDCDCD"/>
<rect x="138.366" y="134.015" width="132.275" height="76.5802" rx="10" fill="#535461"/>
<rect x="23.4962" y="223.649" width="361.145" height="4.35115" fill="#DFDFDF"/>
<circle cx="204.069" cy="172.74" r="6.52672" fill="#DFDFDF"/>
<path fill-rule="evenodd" clip-rule="evenodd" d="M217.557 106.231C226.37 101.441 232.351 92.1021 232.351 81.3664C232.351 65.7465 219.689 53.084 204.069 53.084C188.449 53.084 175.786 65.7465 175.786 81.3664C175.786 92.1021 181.768 101.441 190.58 106.231V116.168V117.294H190.78C191.882 120.366 197.412 122.702 204.069 122.702C210.725 122.702 216.255 120.366 217.358 117.294H217.557V116.168V106.231Z" fill="#E1CDB4"/>
<path d="M85.5181 168.762C85.5181 173.475 78.3422 174.662 76.0198 178.099C72.842 182.802 80.4275 190.052 74.8897 190.052C61.086 190.886 68.9872 195.202 65.6603 194.061C64.1571 193.546 58.8365 194.655 58.3146 194.061C57.1785 192.769 61.5503 189.446 56.0005 186.312C47.9014 181.738 54.9512 175.849 54.9512 171.136C54.9512 166.424 41.2552 152.376 54.5152 156.277C67.7753 160.179 57.3242 147.425 62.862 147.425C68.3998 147.425 77.3113 138.33 77.3113 151.03C73.329 163.542 85.5181 164.05 85.5181 168.762Z" fill="#0CFDD7"/>
<path d="M73.5978 144.286C73.5978 144.286 67.8399 175.71 64.8801 178.105C61.9202 180.5 62.8082 193.712 62.8082 193.712" stroke="black" stroke-width="0.5"/>
<path d="M49.1056 158.384C58.3203 159.899 62.5438 162.098 68.379 168.433" stroke="black" stroke-width="0.5"/>
<path d="M67.4714 172.248C74.323 169.748 78.2343 169.248 85.3485 170" stroke="black" stroke-width="0.5"/>
<path d="M52.415 179.629C57.2606 178.473 59.6866 178.625 63.5254 180.241" stroke="black" stroke-width="0.5"/>
<path d="M63.2695 181.317C70.2821 182.738 73.184 184.505 76.3301 189.572" stroke="black" stroke-width="0.5"/>
<rect x="52.2137" y="194.061" width="22.626" height="16.5344" fill="#DFDFDF"/>
<circle cx="51.7786" cy="202.328" r="8.26718" fill="#DFDFDF"/>
<rect width="22.626" height="16.5344" transform="matrix(-1 0 0 1 74.8397 194.061)" fill="#DFDFDF"/>
<circle r="8.26718" transform="matrix(-1 0 0 1 75.2748 202.328)" fill="#DFDFDF"/>
<circle cx="349.397" cy="190.145" r="7.39695" fill="#DFDFDF"/>
<circle cx="349.397" cy="190.145" r="4.78626" fill="white"/>
<path d="M323.725 180.137H349.832V208.418C349.832 208.418 347.434 210.304 341.565 211.246C338.493 211.74 329.571 211.246 328.076 211.246C323.725 211.246 323.725 208.418 323.725 208.418V180.137Z" fill="#DFDFDF"/>
<path d="M323.725 180.137H349.832V208.418C349.832 208.418 347.434 210.304 341.565 211.246C338.493 211.74 329.571 211.246 328.076 211.246C323.725 211.246 323.725 208.418 323.725 208.418V180.137Z" fill="#DFDFDF"/>
<path d="M323.725 180.137H349.832V208.418C349.832 208.418 347.434 210.304 341.565 211.246C338.493 211.74 329.571 211.246 328.076 211.246C323.725 211.246 323.725 208.418 323.725 208.418V180.137Z" fill="#DFDFDF"/>
<path d="M323.725 180.137H349.832V208.418C349.832 208.418 347.434 210.304 341.565 211.246C338.493 211.74 329.571 211.246 328.076 211.246C323.725 211.246 323.725 208.418 323.725 208.418V180.137Z" fill="#DFDFDF"/>
<path d="M349.832 180.137H323.725V208.418C323.725 208.418 326.124 210.304 331.992 211.246C335.064 211.74 343.986 211.246 345.481 211.246C349.832 211.246 349.832 208.418 349.832 208.418V180.137Z" fill="#DFDFDF"/>
<path d="M349.832 180.137H323.725V208.418C323.725 208.418 326.124 210.304 331.992 211.246C335.064 211.74 343.986 211.246 345.481 211.246C349.832 211.246 349.832 208.418 349.832 208.418V180.137Z" fill="#DFDFDF"/>
<path d="M349.832 180.137H323.725V208.418C323.725 208.418 326.124 210.304 331.992 211.246C335.064 211.74 343.986 211.246 345.481 211.246C349.832 211.246 349.832 208.418 349.832 208.418V180.137Z" fill="#DFDFDF"/>
<path d="M349.832 180.137H323.725V208.418C323.725 208.418 326.124 210.304 331.992 211.246C335.064 211.74 343.986 211.246 345.481 211.246C349.832 211.246 349.832 208.418 349.832 208.418V180.137Z" fill="#DFDFDF"/>
<path d="M343.066 165.822C341.274 167.403 340.949 171.368 339.888 171.811C338.898 172.223 337.178 169.079 335.447 171.281C331.862 175.844 331.496 167.207 329.825 165.007C328.155 162.807 323.818 157.511 328.318 157.511C332.818 157.511 346.528 162.767 343.066 165.822Z" fill="#DFDFDF"/>
<path d="M339.603 174.133C339.603 175.55 337.723 177.31 336.059 177.31C334.394 177.31 336.059 176.161 336.059 174.744C336.059 173.326 334.394 172.177 336.059 172.177C337.723 172.177 339.603 172.715 339.603 174.133Z" fill="#DFDFDF"/>
<rect x="292.397" width="209.725" height="122.702" fill="#D4D4D4"/>
<rect x="349.832" y="53.084" width="40.0305" height="44.3817" rx="5" fill="white"/>
<rect x="324.595" y="38.29" width="40.0305" height="44.3817" rx="5" fill="white"/>
<rect x="433.374" y="14.7939" width="44.3817" height="67.8779" fill="white"/>
</svg>
