<svg width="506" height="307" viewBox="0 0 506 307" fill="none" xmlns="http://www.w3.org/2000/svg">
<ellipse cx="204.504" cy="228.679" rx="51.3435" ry="42.6412" fill="#DFDFDF"/>
<rect y="289.595" width="408.137" height="12.1832" fill="#DFDFDF"/>
<rect x="23.4962" y="301.779" width="361.145" height="0.870229" fill="#CDCDCD"/>
<rect x="138.366" y="213.015" width="132.275" height="76.5802" rx="10" fill="#535461"/>
<rect x="23.4962" y="302.649" width="361.145" height="4.35115" fill="#DFDFDF"/>
<circle cx="204.069" cy="251.74" r="6.52672" fill="#DFDFDF"/>
<circle cx="204" cy="155" r="31" fill="black"/>
<path fill-rule="evenodd" clip-rule="evenodd" d="M217.557 185.231C226.37 180.441 232.351 171.102 232.351 160.366C232.351 144.746 219.689 132.084 204.069 132.084C188.449 132.084 175.786 144.746 175.786 160.366C175.786 171.102 181.768 180.441 190.58 185.231V195.168V196.294H190.78C191.882 199.366 197.412 201.702 204.069 201.702C210.725 201.702 216.255 199.366 217.358 196.294H217.557V195.168V185.231Z" fill="#E1CDB4"/>
<ellipse cx="206.5" cy="135" rx="14.5" ry="9" fill="black"/>
<path d="M85.5181 247.762C85.5181 252.475 78.3422 253.662 76.0198 257.099C72.842 261.802 80.4275 269.052 74.8897 269.052C61.086 269.886 68.9872 274.202 65.6603 273.061C64.1571 272.546 58.8365 273.655 58.3146 273.061C57.1785 271.769 61.5503 268.446 56.0005 265.312C47.9014 260.738 54.9512 254.849 54.9512 250.136C54.9512 245.424 41.2552 231.376 54.5152 235.277C67.7753 239.179 57.3242 226.425 62.862 226.425C68.3998 226.425 77.3113 217.33 77.3113 230.03C73.329 242.542 85.5181 243.05 85.5181 247.762Z" fill="#0CFDD7"/>
<path d="M73.5978 223.286C73.5978 223.286 67.8399 254.71 64.8801 257.105C61.9202 259.5 62.8082 272.712 62.8082 272.712" stroke="#DFDFDF" stroke-width="0.5"/>
<path d="M49.1056 237.384C58.3203 238.899 62.5438 241.098 68.379 247.433" stroke="#DFDFDF" stroke-width="0.5"/>
<path d="M67.4714 251.248C74.323 248.748 78.2343 248.248 85.3485 249" stroke="#DFDFDF" stroke-width="0.5"/>
<path d="M52.415 258.629C57.2606 257.473 59.6866 257.625 63.5254 259.241" stroke="#DFDFDF" stroke-width="0.5"/>
<path d="M63.2695 260.317C70.2821 261.738 73.184 263.505 76.3301 268.572" stroke="#DFDFDF" stroke-width="0.5"/>
<rect x="52.2137" y="273.061" width="22.626" height="16.5344" fill="#DFDFDF"/>
<circle cx="51.7786" cy="281.328" r="8.26718" fill="#DFDFDF"/>
<rect width="22.626" height="16.5344" transform="matrix(-1 0 0 1 74.8397 273.061)" fill="#DFDFDF"/>
<circle r="8.26718" transform="matrix(-1 0 0 1 75.2748 281.328)" fill="#DFDFDF"/>
<circle cx="349.397" cy="269.145" r="7.39695" fill="#DFDFDF"/>
<circle cx="349.397" cy="269.145" r="4.78626" fill="white"/>
<path d="M323.725 259.137H349.832V287.418C349.832 287.418 347.434 289.304 341.565 290.246C338.493 290.74 329.571 290.246 328.076 290.246C323.725 290.246 323.725 287.418 323.725 287.418V259.137Z" fill="#DFDFDF"/>
<path d="M323.725 259.137H349.832V287.418C349.832 287.418 347.434 289.304 341.565 290.246C338.493 290.74 329.571 290.246 328.076 290.246C323.725 290.246 323.725 287.418 323.725 287.418V259.137Z" fill="#DFDFDF"/>
<path d="M323.725 259.137H349.832V287.418C349.832 287.418 347.434 289.304 341.565 290.246C338.493 290.74 329.571 290.246 328.076 290.246C323.725 290.246 323.725 287.418 323.725 287.418V259.137Z" fill="#DFDFDF"/>
<path d="M323.725 259.137H349.832V287.418C349.832 287.418 347.434 289.304 341.565 290.246C338.493 290.74 329.571 290.246 328.076 290.246C323.725 290.246 323.725 287.418 323.725 287.418V259.137Z" fill="#DFDFDF"/>
<path d="M349.832 259.137H323.725V287.418C323.725 287.418 326.124 289.304 331.992 290.246C335.064 290.74 343.986 290.246 345.481 290.246C349.832 290.246 349.832 287.418 349.832 287.418V259.137Z" fill="#DFDFDF"/>
<path d="M349.832 259.137H323.725V287.418C323.725 287.418 326.124 289.304 331.992 290.246C335.064 290.74 343.986 290.246 345.481 290.246C349.832 290.246 349.832 287.418 349.832 287.418V259.137Z" fill="#DFDFDF"/>
<path d="M349.832 259.137H323.725V287.418C323.725 287.418 326.124 289.304 331.992 290.246C335.064 290.74 343.986 290.246 345.481 290.246C349.832 290.246 349.832 287.418 349.832 287.418V259.137Z" fill="#DFDFDF"/>
<path d="M349.832 259.137H323.725V287.418C323.725 287.418 326.124 289.304 331.992 290.246C335.064 290.74 343.986 290.246 345.481 290.246C349.832 290.246 349.832 287.418 349.832 287.418V259.137Z" fill="#DFDFDF"/>
<path d="M343.066 244.822C341.274 246.403 340.949 250.368 339.888 250.811C338.898 251.223 337.178 248.079 335.447 250.281C331.862 254.844 331.496 246.207 329.825 244.007C328.155 241.807 323.818 236.511 328.318 236.511C332.818 236.511 346.528 241.767 343.066 244.822Z" fill="#DFDFDF"/>
<path d="M339.603 253.133C339.603 254.55 337.723 256.31 336.059 256.31C334.394 256.31 336.059 255.161 336.059 253.744C336.059 252.326 334.394 251.177 336.059 251.177C337.723 251.177 339.603 251.715 339.603 253.133Z" fill="#DFDFDF"/>
<rect x="290.897" y="77.5" width="212.725" height="125.702" fill="#D4D4D4" stroke="#535461" stroke-width="3"/>
<circle cx="168.5" cy="142.5" r="2.5" fill="white"/>
<circle cx="159" cy="135" r="5" fill="white"/>
<circle cx="152" cy="121" r="7" fill="white"/>
<ellipse cx="50" cy="60.5" rx="41" ry="33.5" fill="white"/>
<ellipse cx="108" cy="36" rx="37" ry="36" fill="white"/>
<ellipse cx="149.5" cy="60" rx="48.5" ry="29" fill="white"/>
<ellipse cx="57.5" cy="93" rx="48.5" ry="21" fill="white"/>
<ellipse cx="110.5" cy="89.5" rx="44.5" ry="24.5" fill="white"/>
<path d="M40.125 59.5L36.585 70H35.415L32.34 61.045L29.25 70H28.095L24.555 59.5H25.695L28.725 68.53L31.86 59.5H32.895L35.985 68.575L39.06 59.5H40.125ZM46.1749 62.05C47.1649 62.05 47.9499 62.34 48.5299 62.92C49.1199 63.49 49.4149 64.325 49.4149 65.425V70H48.3499V65.53C48.3499 64.71 48.1449 64.085 47.7349 63.655C47.3249 63.225 46.7399 63.01 45.9799 63.01C45.1299 63.01 44.4549 63.265 43.9549 63.775C43.4649 64.275 43.2199 64.97 43.2199 65.86V70H42.1549V58.87H43.2199V63.49C43.5099 63.03 43.9099 62.675 44.4199 62.425C44.9299 62.175 45.5149 62.05 46.1749 62.05ZM58.7898 62.11L54.8448 70.945C54.5248 71.685 54.1548 72.21 53.7348 72.52C53.3148 72.83 52.8098 72.985 52.2198 72.985C51.8398 72.985 51.4848 72.925 51.1548 72.805C50.8248 72.685 50.5398 72.505 50.2998 72.265L50.7948 71.47C51.1948 71.87 51.6748 72.07 52.2348 72.07C52.5948 72.07 52.8998 71.97 53.1498 71.77C53.4098 71.57 53.6498 71.23 53.8698 70.75L54.2148 69.985L50.6898 62.11H51.7998L54.7698 68.815L57.7398 62.11H58.7898ZM75.7955 62.11L72.8105 70H71.8055L69.3155 63.535L66.8255 70H65.8205L62.8505 62.11H63.8705L66.3455 68.815L68.8805 62.11H69.7955L72.3155 68.815L74.8205 62.11H75.7955ZM80.4043 70.075C79.6443 70.075 78.9593 69.905 78.3493 69.565C77.7393 69.215 77.2593 68.735 76.9093 68.125C76.5593 67.515 76.3843 66.825 76.3843 66.055C76.3843 65.285 76.5593 64.595 76.9093 63.985C77.2593 63.375 77.7393 62.9 78.3493 62.56C78.9593 62.22 79.6443 62.05 80.4043 62.05C81.1643 62.05 81.8493 62.22 82.4593 62.56C83.0693 62.9 83.5443 63.375 83.8843 63.985C84.2343 64.595 84.4093 65.285 84.4093 66.055C84.4093 66.825 84.2343 67.515 83.8843 68.125C83.5443 68.735 83.0693 69.215 82.4593 69.565C81.8493 69.905 81.1643 70.075 80.4043 70.075ZM80.4043 69.13C80.9643 69.13 81.4643 69.005 81.9043 68.755C82.3543 68.495 82.7043 68.13 82.9543 67.66C83.2043 67.19 83.3293 66.655 83.3293 66.055C83.3293 65.455 83.2043 64.92 82.9543 64.45C82.7043 63.98 82.3543 63.62 81.9043 63.37C81.4643 63.11 80.9643 62.98 80.4043 62.98C79.8443 62.98 79.3393 63.11 78.8893 63.37C78.4493 63.62 78.0993 63.98 77.8393 64.45C77.5893 64.92 77.4643 65.455 77.4643 66.055C77.4643 66.655 77.5893 67.19 77.8393 67.66C78.0993 68.13 78.4493 68.495 78.8893 68.755C79.3393 69.005 79.8443 69.13 80.4043 69.13ZM90.6036 62.05C91.5936 62.05 92.3786 62.34 92.9586 62.92C93.5486 63.49 93.8436 64.325 93.8436 65.425V70H92.7786V65.53C92.7786 64.71 92.5736 64.085 92.1636 63.655C91.7536 63.225 91.1686 63.01 90.4086 63.01C89.5586 63.01 88.8836 63.265 88.3836 63.775C87.8936 64.275 87.6486 64.97 87.6486 65.86V70H86.5836V62.11H87.6036V63.565C87.8936 63.085 88.2936 62.715 88.8036 62.455C89.3236 62.185 89.9236 62.05 90.6036 62.05ZM96.7378 58.795C96.9678 58.795 97.1578 58.875 97.3078 59.035C97.4578 59.185 97.5328 59.375 97.5328 59.605C97.5328 59.725 97.5128 59.855 97.4728 59.995C97.4428 60.125 97.3978 60.28 97.3378 60.46L96.6928 62.53H95.9728L96.4978 60.37C96.3278 60.32 96.1928 60.23 96.0928 60.1C95.9928 59.96 95.9428 59.795 95.9428 59.605C95.9428 59.365 96.0178 59.17 96.1678 59.02C96.3178 58.87 96.5078 58.795 96.7378 58.795ZM103.981 69.52C103.781 69.7 103.531 69.84 103.231 69.94C102.941 70.03 102.636 70.075 102.316 70.075C101.576 70.075 101.006 69.875 100.606 69.475C100.206 69.075 100.006 68.51 100.006 67.78V63.01H98.5958V62.11H100.006V60.385H101.071V62.11H103.471V63.01H101.071V67.72C101.071 68.19 101.186 68.55 101.416 68.8C101.656 69.04 101.996 69.16 102.436 69.16C102.656 69.16 102.866 69.125 103.066 69.055C103.276 68.985 103.456 68.885 103.606 68.755L103.981 69.52ZM109.845 62.11H110.91V70H109.845V62.11ZM110.385 60.385C110.165 60.385 109.98 60.31 109.83 60.16C109.68 60.01 109.605 59.83 109.605 59.62C109.605 59.42 109.68 59.245 109.83 59.095C109.98 58.945 110.165 58.87 110.385 58.87C110.605 58.87 110.79 58.945 110.94 59.095C111.09 59.235 111.165 59.405 111.165 59.605C111.165 59.825 111.09 60.01 110.94 60.16C110.79 60.31 110.605 60.385 110.385 60.385ZM118.029 69.52C117.829 69.7 117.579 69.84 117.279 69.94C116.989 70.03 116.684 70.075 116.364 70.075C115.624 70.075 115.054 69.875 114.654 69.475C114.254 69.075 114.054 68.51 114.054 67.78V63.01H112.644V62.11H114.054V60.385H115.119V62.11H117.519V63.01H115.119V67.72C115.119 68.19 115.234 68.55 115.464 68.8C115.704 69.04 116.044 69.16 116.484 69.16C116.704 69.16 116.914 69.125 117.114 69.055C117.324 68.985 117.504 68.885 117.654 68.755L118.029 69.52ZM127.163 70.075C126.383 70.075 125.683 69.905 125.063 69.565C124.453 69.225 123.973 68.75 123.623 68.14C123.273 67.52 123.098 66.825 123.098 66.055C123.098 65.285 123.273 64.595 123.623 63.985C123.973 63.375 124.453 62.9 125.063 62.56C125.683 62.22 126.383 62.05 127.163 62.05C127.843 62.05 128.448 62.185 128.978 62.455C129.518 62.715 129.943 63.1 130.253 63.61L129.458 64.15C129.198 63.76 128.868 63.47 128.468 63.28C128.068 63.08 127.633 62.98 127.163 62.98C126.593 62.98 126.078 63.11 125.618 63.37C125.168 63.62 124.813 63.98 124.553 64.45C124.303 64.92 124.178 65.455 124.178 66.055C124.178 66.665 124.303 67.205 124.553 67.675C124.813 68.135 125.168 68.495 125.618 68.755C126.078 69.005 126.593 69.13 127.163 69.13C127.633 69.13 128.068 69.035 128.468 68.845C128.868 68.655 129.198 68.365 129.458 67.975L130.253 68.515C129.943 69.025 129.518 69.415 128.978 69.685C128.438 69.945 127.833 70.075 127.163 70.075ZM139.084 66.385H132.484C132.544 67.205 132.859 67.87 133.429 68.38C133.999 68.88 134.719 69.13 135.589 69.13C136.079 69.13 136.529 69.045 136.939 68.875C137.349 68.695 137.704 68.435 138.004 68.095L138.604 68.785C138.254 69.205 137.814 69.525 137.284 69.745C136.764 69.965 136.189 70.075 135.559 70.075C134.749 70.075 134.029 69.905 133.399 69.565C132.779 69.215 132.294 68.735 131.944 68.125C131.594 67.515 131.419 66.825 131.419 66.055C131.419 65.285 131.584 64.595 131.914 63.985C132.254 63.375 132.714 62.9 133.294 62.56C133.884 62.22 134.544 62.05 135.274 62.05C136.004 62.05 136.659 62.22 137.239 62.56C137.819 62.9 138.274 63.375 138.604 63.985C138.934 64.585 139.099 65.275 139.099 66.055L139.084 66.385ZM135.274 62.965C134.514 62.965 133.874 63.21 133.354 63.7C132.844 64.18 132.554 64.81 132.484 65.59H138.079C138.009 64.81 137.714 64.18 137.194 63.7C136.684 63.21 136.044 62.965 135.274 62.965ZM145.286 62.05C146.276 62.05 147.061 62.34 147.641 62.92C148.231 63.49 148.526 64.325 148.526 65.425V70H147.461V65.53C147.461 64.71 147.256 64.085 146.846 63.655C146.436 63.225 145.851 63.01 145.091 63.01C144.241 63.01 143.566 63.265 143.066 63.775C142.576 64.275 142.331 64.97 142.331 65.86V70H141.266V62.11H142.286V63.565C142.576 63.085 142.976 62.715 143.486 62.455C144.006 62.185 144.606 62.05 145.286 62.05ZM155.573 69.52C155.373 69.7 155.123 69.84 154.823 69.94C154.533 70.03 154.228 70.075 153.908 70.075C153.168 70.075 152.598 69.875 152.198 69.475C151.798 69.075 151.598 68.51 151.598 67.78V63.01H150.188V62.11H151.598V60.385H152.663V62.11H155.063V63.01H152.663V67.72C152.663 68.19 152.778 68.55 153.008 68.8C153.248 69.04 153.588 69.16 154.028 69.16C154.248 69.16 154.458 69.125 154.658 69.055C154.868 68.985 155.048 68.885 155.198 68.755L155.573 69.52ZM164.103 66.385H157.503C157.563 67.205 157.878 67.87 158.448 68.38C159.018 68.88 159.738 69.13 160.608 69.13C161.098 69.13 161.548 69.045 161.958 68.875C162.368 68.695 162.723 68.435 163.023 68.095L163.623 68.785C163.273 69.205 162.833 69.525 162.303 69.745C161.783 69.965 161.208 70.075 160.578 70.075C159.768 70.075 159.048 69.905 158.418 69.565C157.798 69.215 157.313 68.735 156.963 68.125C156.613 67.515 156.438 66.825 156.438 66.055C156.438 65.285 156.603 64.595 156.933 63.985C157.273 63.375 157.733 62.9 158.313 62.56C158.903 62.22 159.563 62.05 160.293 62.05C161.023 62.05 161.678 62.22 162.258 62.56C162.838 62.9 163.293 63.375 163.623 63.985C163.953 64.585 164.118 65.275 164.118 66.055L164.103 66.385ZM160.293 62.965C159.533 62.965 158.893 63.21 158.373 63.7C157.863 64.18 157.573 64.81 157.503 65.59H163.098C163.028 64.81 162.733 64.18 162.213 63.7C161.703 63.21 161.063 62.965 160.293 62.965ZM167.306 63.655C167.556 63.125 167.926 62.725 168.416 62.455C168.916 62.185 169.531 62.05 170.261 62.05V63.085L170.006 63.07C169.176 63.07 168.526 63.325 168.056 63.835C167.586 64.345 167.351 65.06 167.351 65.98V70H166.286V62.11H167.306V63.655ZM172.265 70.075C172.045 70.075 171.855 69.995 171.695 69.835C171.545 69.675 171.47 69.48 171.47 69.25C171.47 69.02 171.545 68.83 171.695 68.68C171.855 68.52 172.045 68.44 172.265 68.44C172.485 68.44 172.675 68.52 172.835 68.68C172.995 68.83 173.075 69.02 173.075 69.25C173.075 69.48 172.995 69.675 172.835 69.835C172.675 69.995 172.485 70.075 172.265 70.075ZM175.444 70.075C175.224 70.075 175.034 69.995 174.874 69.835C174.724 69.675 174.649 69.48 174.649 69.25C174.649 69.02 174.724 68.83 174.874 68.68C175.034 68.52 175.224 68.44 175.444 68.44C175.664 68.44 175.854 68.52 176.014 68.68C176.174 68.83 176.254 69.02 176.254 69.25C176.254 69.48 176.174 69.675 176.014 69.835C175.854 69.995 175.664 70.075 175.444 70.075ZM178.622 70.075C178.402 70.075 178.212 69.995 178.052 69.835C177.902 69.675 177.827 69.48 177.827 69.25C177.827 69.02 177.902 68.83 178.052 68.68C178.212 68.52 178.402 68.44 178.622 68.44C178.842 68.44 179.032 68.52 179.192 68.68C179.352 68.83 179.432 69.02 179.432 69.25C179.432 69.48 179.352 69.675 179.192 69.835C179.032 69.995 178.842 70.075 178.622 70.075Z" fill="#1F1F1F"/>
<rect x="386.5" y="116.5" width="27" height="15" fill="#BBB8B8" stroke="#B1B0B0"/>
<rect x="394" y="119" width="11" height="5" rx="1" fill="#989696"/>
<line x1="391.5" y1="127.5" x2="407.5" y2="127.5" stroke="#625C5C" stroke-linecap="round"/>
<path d="M346 263V285.354L343 288.354" stroke="#C4C4C4" stroke-width="2" stroke-linecap="round"/>
<rect x="390.5" y="171.5" width="28" height="17" fill="white" stroke="#CDCDCD"/>
<rect x="393" y="173" width="25" height="5" fill="#C4C4C4"/>
<line x1="400.5" y1="180.5" x2="414.5" y2="180.5" stroke="#CDCDCD" stroke-linecap="round"/>
<line x1="402.5" y1="184.5" x2="415.5" y2="184.5" stroke="#CDCDCD" stroke-linecap="round"/>
<rect x="373.5" y="162.5" width="37" height="22" fill="white" stroke="#CDCDCD"/>
<path d="M374 165H409V170H374V165Z" fill="#C4C4C4"/>
<rect x="381" y="172" width="27" height="3" rx="1.5" fill="#C4C4C4"/>
<line x1="377.5" y1="173.5" x2="386.5" y2="173.5" stroke="#0CFDD7" stroke-linecap="round"/>
<line x1="377.5" y1="176.5" x2="396.5" y2="176.5" stroke="#CDCDCD" stroke-linecap="round"/>
<line x1="377.5" y1="182.5" x2="399.5" y2="182.5" stroke="#CDCDCD" stroke-linecap="round"/>
<line x1="377.5" y1="179.5" x2="399.5" y2="179.5" stroke="#CDCDCD" stroke-linecap="round"/>
<rect x="433.874" y="94.2939" width="43.3817" height="66.8779" fill="white" stroke="#CDCDCD"/>
<line x1="439.5" y1="114.5" x2="472.5" y2="114.5" stroke="#CDCDCD" stroke-linecap="round"/>
<line x1="443.5" y1="135.5" x2="451.5" y2="135.5" stroke="#CDCDCD" stroke-linecap="round"/>
<line x1="461.5" y1="134.5" x2="470.5" y2="134.5" stroke="#0CFDD7" stroke-linecap="round"/>
<line x1="440.5" y1="138.5" x2="471.5" y2="138.5" stroke="#CDCDCD" stroke-linecap="round"/>
<line x1="441.5" y1="141.5" x2="470.5" y2="141.5" stroke="#CDCDCD" stroke-linecap="round"/>
<line x1="448.5" y1="149.5" x2="461.5" y2="149.5" stroke="#CDCDCD" stroke-linecap="round"/>
<rect x="442" y="101" width="29" height="8" rx="1" fill="#CDCDCD"/>
<rect x="322.5" y="115.5" width="39.0305" height="43.3817" rx="4.5" fill="white" stroke="#CDCDCD"/>
<line x1="327.5" y1="152.5" x2="353.5" y2="152.5" stroke="#DFDFDF" stroke-linecap="round"/>
<line x1="327.5" y1="148.5" x2="344.5" y2="148.5" stroke="#DFDFDF" stroke-linecap="round"/>
<line x1="327.5" y1="134.5" x2="353.5" y2="134.5" stroke="#DFDFDF" stroke-linecap="round"/>
<line x1="327.5" y1="138.5" x2="344.5" y2="138.5" stroke="#DFDFDF" stroke-linecap="round"/>
<line x1="327.5" y1="130.5" x2="353.5" y2="130.5" stroke="#DFDFDF" stroke-linecap="round"/>
<line x1="326.5" y1="142.5" x2="352.5" y2="142.5" stroke="#DFDFDF" stroke-linecap="round"/>
<circle cx="329" cy="124" r="3" fill="#DFDFDF"/>
<path d="M335 125.5H345.5H356M335 123H356" stroke="#DFDFDF" stroke-linecap="round"/>
<line x1="326.5" y1="145.5" x2="352.5" y2="145.5" stroke="#DFDFDF" stroke-linecap="round"/>
<rect x="315.5" y="104.5" width="39.0305" height="43.3817" rx="4.5" fill="white" stroke="#CDCDCD"/>
<line x1="320.5" y1="141.5" x2="346.5" y2="141.5" stroke="#DFDFDF" stroke-linecap="round"/>
<line x1="320.5" y1="137.5" x2="337.5" y2="137.5" stroke="#DFDFDF" stroke-linecap="round"/>
<line x1="320.5" y1="123.5" x2="346.5" y2="123.5" stroke="#DFDFDF" stroke-linecap="round"/>
<line x1="320.5" y1="127.5" x2="337.5" y2="127.5" stroke="#DFDFDF" stroke-linecap="round"/>
<line x1="320.5" y1="119.5" x2="346.5" y2="119.5" stroke="#DFDFDF" stroke-linecap="round"/>
<line x1="319.5" y1="131.5" x2="345.5" y2="131.5" stroke="#DFDFDF" stroke-linecap="round"/>
<circle cx="322" cy="113" r="3" fill="#DFDFDF"/>
<path d="M328 114.5H338.5H349M328 112H349" stroke="#DFDFDF" stroke-linecap="round"/>
<line x1="319.5" y1="134.5" x2="345.5" y2="134.5" stroke="#DFDFDF" stroke-linecap="round"/>
<rect x="322.5" y="115.5" width="39.0305" height="43.3817" rx="4.5" fill="white" stroke="#CDCDCD"/>
<line x1="327.5" y1="152.5" x2="353.5" y2="152.5" stroke="#DFDFDF" stroke-linecap="round"/>
<line x1="327.5" y1="148.5" x2="344.5" y2="148.5" stroke="#DFDFDF" stroke-linecap="round"/>
<line x1="327.5" y1="134.5" x2="353.5" y2="134.5" stroke="#DFDFDF" stroke-linecap="round"/>
<line x1="327.5" y1="138.5" x2="344.5" y2="138.5" stroke="#DFDFDF" stroke-linecap="round"/>
<line x1="327.5" y1="130.5" x2="353.5" y2="130.5" stroke="#DFDFDF" stroke-linecap="round"/>
<line x1="326.5" y1="142.5" x2="352.5" y2="142.5" stroke="#DFDFDF" stroke-linecap="round"/>
<circle cx="329" cy="124" r="3" fill="#DFDFDF"/>
<path d="M335 125.5H345.5H356M335 123H356" stroke="#DFDFDF" stroke-linecap="round"/>
<line x1="326.5" y1="145.5" x2="352.5" y2="145.5" stroke="#DFDFDF" stroke-linecap="round"/>
</svg>
